/* XPM */
static char * back_32_xpm[] = {
"32 32 1016 2",
"  	c #4BB690",
". 	c #4AB996",
"+ 	c #1E886B",
"@ 	c #1A7E61",
"# 	c #34B085",
"$ 	c #22B380",
"% 	c #32BE8D",
"& 	c #4ED3A5",
"* 	c #31B182",
"= 	c #35B788",
"- 	c #35AB80",
"; 	c #45A883",
"> 	c #61CEA9",
", 	c #59B193",
"' 	c #48987F",
") 	c #439E82",
"! 	c #43A88A",
"~ 	c #57B697",
"{ 	c #5DC29E",
"] 	c #53B692",
"^ 	c #238668",
"/ 	c #32A285",
"( 	c #39957C",
"_ 	c #379777",
": 	c #41AD8B",
"< 	c #53AB8E",
"[ 	c #51B793",
"} 	c #256E54",
"| 	c #338469",
"1 	c #5EC2A2",
"2 	c #56B793",
"3 	c #52B491",
"4 	c #5DBD9B",
"5 	c #58BB97",
"6 	c #48B78D",
"7 	c #1D986A",
"8 	c #2C9C71",
"9 	c #52CA9F",
"0 	c #3FA47D",
"a 	c #3BAC81",
"b 	c #58D3A9",
"c 	c #40BA93",
"d 	c #44BC94",
"e 	c #51B997",
"f 	c #5DC09D",
"g 	c #49A98C",
"h 	c #3C937A",
"i 	c #3A8F76",
"j 	c #419D84",
"k 	c #3F927A",
"l 	c #50B895",
"m 	c #51CBA3",
"n 	c #2E9F80",
"o 	c #23775F",
"p 	c #339577",
"q 	c #30A27E",
"r 	c #35B28C",
"s 	c #46A383",
"t 	c #4FAB8A",
"u 	c #43A384",
"v 	c #4FC3A3",
"w 	c #4EC3A2",
"x 	c #50B896",
"y 	c #5ACCA7",
"z 	c #5DD1A4",
"A 	c #59C09B",
"B 	c #56D6AA",
"C 	c #59D9AD",
"D 	c #4AC198",
"E 	c #3DAD84",
"F 	c #52C79E",
"G 	c #5FDEB5",
"H 	c #54CFA8",
"I 	c #38B58D",
"J 	c #2EA881",
"K 	c #268363",
"L 	c #29755A",
"M 	c #388069",
"N 	c #509883",
"O 	c #419F86",
"P 	c #3A8975",
"Q 	c #47A68A",
"R 	c #46B18F",
"S 	c #3FAA8B",
"T 	c #47A787",
"U 	c #2F8769",
"V 	c #2D9975",
"W 	c #40BC9D",
"X 	c #35AA89",
"Y 	c #5CB696",
"Z 	c #2D7B60",
"` 	c #41B38D",
" .	c #54DFB4",
"..	c #4FC29E",
"+.	c #4DC49E",
"@.	c #60E4B5",
"#.	c #71F9CF",
"$.	c #5BCDA1",
"%.	c #45B38B",
"&.	c #56C4A0",
"*.	c #4DA98C",
"=.	c #358E70",
"-.	c #50C19E",
";.	c #53D5AE",
">.	c #38AC8C",
",.	c #1C8867",
"'.	c #177F60",
").	c #137556",
"!.	c #308367",
"~.	c #2E6E5B",
"{.	c #2D7D67",
"].	c #44A084",
"^.	c #48A588",
"/.	c #389E7C",
"(.	c #57BC9B",
"_.	c #3BA484",
":.	c #2D8E6D",
"<.	c #34A07F",
"[.	c #42B08F",
"}.	c #43BFA0",
"|.	c #419C7F",
"1.	c #449B7E",
"2.	c #2D8367",
"3.	c #4DBE96",
"4.	c #3BA785",
"5.	c #43C69A",
"6.	c #5ACFA7",
"7.	c #75FCD8",
"8.	c #6CF4D2",
"9.	c #62DCAE",
"0.	c #3C9E79",
"a.	c #4BAE8C",
"b.	c #47A788",
"c.	c #38A185",
"d.	c #43B897",
"e.	c #1F8A6A",
"f.	c #25896B",
"g.	c #247F64",
"h.	c #137A5C",
"i.	c #1D9B78",
"j.	c #359E7F",
"k.	c #459982",
"l.	c #226D55",
"m.	c #2F7E65",
"n.	c #489E82",
"o.	c #53947E",
"p.	c #4D9A84",
"q.	c #48A690",
"r.	c #3A9E80",
"s.	c #319E7C",
"t.	c #32A889",
"u.	c #319877",
"v.	c #539F84",
"w.	c #47947B",
"x.	c #46C19A",
"y.	c #40B088",
"z.	c #1E936F",
"A.	c #29B084",
"B.	c #53C79F",
"C.	c #49DBAE",
"D.	c #40B28B",
"E.	c #57D2A7",
"F.	c #329472",
"G.	c #167A5A",
"H.	c #268D6F",
"I.	c #1A755F",
"J.	c #399E83",
"K.	c #208E72",
"L.	c #409A7F",
"M.	c #399A7C",
"N.	c #3D9C7F",
"O.	c #389278",
"P.	c #267761",
"Q.	c #2E9B7B",
"R.	c #237659",
"S.	c #21755E",
"T.	c #438876",
"U.	c #529886",
"V.	c #3D8F76",
"W.	c #4D9A89",
"X.	c #479D8B",
"Y.	c #5AC4AA",
"Z.	c #40B196",
"`.	c #3EA383",
" +	c #44A082",
".+	c #3F9679",
"++	c #4EAF90",
"@+	c #4D9E82",
"#+	c #2A8C6D",
"$+	c #32A984",
"%+	c #36BE91",
"&+	c #249F75",
"*+	c #2E896C",
"=+	c #37B189",
"-+	c #39B28B",
";+	c #2DA17A",
">+	c #309D7A",
",+	c #44947F",
"'+	c #21866D",
")+	c #178B6E",
"!+	c #178265",
"~+	c #4FB79D",
"{+	c #56B9A0",
"]+	c #278771",
"^+	c #128067",
"/+	c #3CA589",
"(+	c #50B99C",
"_+	c #2B8C70",
":+	c #409A81",
"<+	c #2A7F6A",
"[+	c #41AA8E",
"}+	c #48AC8D",
"|+	c #408973",
"1+	c #46B695",
"2+	c #50BE9F",
"3+	c #52A38B",
"4+	c #54AA93",
"5+	c #4DAD93",
"6+	c #519F87",
"7+	c #5AAC90",
"8+	c #45AE8D",
"9+	c #33AD88",
"0+	c #30AE85",
"a+	c #177252",
"b+	c #3CAE8C",
"c+	c #38C096",
"d+	c #35CB9C",
"e+	c #32B58A",
"f+	c #40A482",
"g+	c #56B396",
"h+	c #2B9B80",
"i+	c #408B75",
"j+	c #286553",
"k+	c #429780",
"l+	c #50B09A",
"m+	c #389E86",
"n+	c #3A9E86",
"o+	c #34947C",
"p+	c #2DA889",
"q+	c #2D9E7C",
"r+	c #48B396",
"s+	c #2F8A72",
"t+	c #419A7E",
"u+	c #4F9B81",
"v+	c #5CCDA1",
"w+	c #5FC49C",
"x+	c #4E977B",
"y+	c #52B291",
"z+	c #52BE9A",
"A+	c #58B597",
"B+	c #59B999",
"C+	c #4AB18F",
"D+	c #2B9A79",
"E+	c #2CB086",
"F+	c #229A72",
"G+	c #279872",
"H+	c #20A97D",
"I+	c #39C093",
"J+	c #208E65",
"K+	c #24A176",
"L+	c #349E7F",
"M+	c #53AA94",
"N+	c #3F8A75",
"O+	c #1E6D56",
"P+	c #4A9F87",
"Q+	c #44A18A",
"R+	c #46AE92",
"S+	c #46A78C",
"T+	c #29907C",
"U+	c #2B957B",
"V+	c #338870",
"W+	c #2E6051",
"X+	c #56A78E",
"Y+	c #62BEA1",
"Z+	c #4FBD97",
"`+	c #60D9AC",
" @	c #5FBE9A",
".@	c #57AE8C",
"+@	c #5CCDA2",
"@@	c #4AB08A",
"#@	c #53BC96",
"$@	c #5AD7AC",
"%@	c #55C69F",
"&@	c #2CA781",
"*@	c #32C295",
"=@	c #2AA781",
"-@	c #308870",
";@	c #2E8D6F",
">@	c #229B74",
",@	c #43BC93",
"'@	c #4AB08C",
")@	c #1B8A63",
"!@	c #40A385",
"~@	c #4FBB99",
"{@	c #4DAB8D",
"]@	c #2F7C64",
"^@	c #43A082",
"/@	c #3E997F",
"(@	c #54D3B2",
"_@	c #46A489",
":@	c #4A9985",
"<@	c #3E9A8B",
"[@	c #176857",
"}@	c #16684E",
"|@	c #2F8F70",
"1@	c #4FBA97",
"2@	c #3EAF87",
"3@	c #309B73",
"4@	c #50AF8C",
"5@	c #59C29B",
"6@	c #227654",
"7@	c #439E7E",
"8@	c #52CDA0",
"9@	c #58D1A4",
"0@	c #5CD5AE",
"a@	c #309B78",
"b@	c #248D6C",
"c@	c #2D7C67",
"d@	c #3D816D",
"e@	c #3C8F77",
"f@	c #40AD88",
"g@	c #3BA684",
"h@	c #3EA585",
"i@	c #3FA280",
"j@	c #4D9F83",
"k@	c #51C7A0",
"l@	c #3BA37F",
"m@	c #37886B",
"n@	c #348B6E",
"o@	c #52B598",
"p@	c #56D7B9",
"q@	c #329D7E",
"r@	c #41A585",
"s@	c #45987F",
"t@	c #3B7E6A",
"u@	c #249471",
"v@	c #42C69D",
"w@	c #4DC29D",
"x@	c #339576",
"y@	c #1D9F72",
"z@	c #3EB087",
"A@	c #52C199",
"B@	c #5ACBA2",
"C@	c #59C7A7",
"D@	c #5EDCB4",
"E@	c #53D5A9",
"F@	c #5DE4BB",
"G@	c #2EA47E",
"H@	c #3DAE8D",
"I@	c #3A7A68",
"J@	c #3C8A72",
"K@	c #47A484",
"L@	c #389B79",
"M@	c #1A7759",
"N@	c #299374",
"O@	c #24916C",
"P@	c #54B390",
"Q@	c #57BA97",
"R@	c #4DBD97",
"S@	c #2D8565",
"T@	c #449678",
"U@	c #3EB18A",
"V@	c #5ACFB5",
"W@	c #49CBA6",
"X@	c #39AB83",
"Y@	c #36A883",
"Z@	c #35AC87",
"`@	c #30C999",
" #	c #47DEB2",
".#	c #56CCAB",
"+#	c #55C3A7",
"@#	c #47B596",
"##	c #46C0A3",
"$#	c #4FCBA8",
"%#	c #61E9C4",
"&#	c #5CDDC2",
"*#	c #2F937B",
"=#	c #30AB85",
"-#	c #309B79",
";#	c #3BA787",
">#	c #55B095",
",#	c #37826C",
"'#	c #3E8570",
")#	c #40A084",
"!#	c #39AC89",
"~#	c #34A17E",
"{#	c #248F72",
"]#	c #17996F",
"^#	c #37AE80",
"/#	c #4DBC93",
"(#	c #3F9E79",
"_#	c #439A7B",
":#	c #357D62",
"<#	c #52BA96",
"[#	c #5BCEAE",
"}#	c #4FD0B0",
"|#	c #40C69C",
"1#	c #57EABD",
"2#	c #3AD1A0",
"3#	c #2FCB96",
"4#	c #26AB7E",
"5#	c #279679",
"6#	c #48C0A3",
"7#	c #63E1C1",
"8#	c #58DABA",
"9#	c #5BDFC2",
"0#	c #4FC6AA",
"a#	c #319880",
"b#	c #319279",
"c#	c #3B9377",
"d#	c #3A9678",
"e#	c #5BB89B",
"f#	c #4B9C82",
"g#	c #3A796A",
"h#	c #4D9C86",
"i#	c #43AB93",
"j#	c #31A181",
"k#	c #238C6C",
"l#	c #228E6D",
"m#	c #3DDFAE",
"n#	c #16A373",
"o#	c #3CAD87",
"p#	c #2FAA7F",
"q#	c #3E9274",
"r#	c #52A385",
"s#	c #56B995",
"t#	c #59DCAD",
"u#	c #56E0B4",
"v#	c #3AC697",
"w#	c #29916D",
"x#	c #3AB488",
"y#	c #40BF91",
"z#	c #3DB68B",
"A#	c #1F8F6B",
"B#	c #48C8A5",
"C#	c #47BC9E",
"D#	c #46B598",
"E#	c #4FCAA8",
"F#	c #34A284",
"G#	c #2D917A",
"H#	c #4C9C85",
"I#	c #4CA88C",
"J#	c #49AC8F",
"K#	c #5AA28B",
"L#	c #3F7A66",
"M#	c #4FA289",
"N#	c #52AA92",
"O#	c #2A846D",
"P#	c #3F987C",
"Q#	c #58BB9D",
"R#	c #2FA981",
"S#	c #39CD9E",
"T#	c #53D0A7",
"U#	c #2DB387",
"V#	c #45B791",
"W#	c #40AD8E",
"X#	c #57E1B3",
"Y#	c #47BC8F",
"Z#	c #57D9A8",
"`#	c #53D5A7",
" $	c #55C5A0",
".$	c #46B690",
"+$	c #3EAB85",
"@$	c #4BBB95",
"#$	c #53C69D",
"$$	c #39A17D",
"%$	c #21916C",
"&$	c #279773",
"*$	c #269E7A",
"=$	c #3DBC91",
"-$	c #39AB87",
";$	c #237D67",
">$	c #51A490",
",$	c #50A590",
"'$	c #53AE92",
")$	c #59B095",
"!$	c #4F9980",
"~$	c #58A28B",
"{$	c #50AC95",
"]$	c #35836D",
"^$	c #46927A",
"/$	c #48BA95",
"($	c #36C99A",
"_$	c #2CBA8A",
":$	c #4ADDAD",
"<$	c #3CB98A",
"[$	c #40AC83",
"}$	c #30AB86",
"|$	c #41C29B",
"1$	c #51D8A6",
"2$	c #54D8A8",
"3$	c #61F0C5",
"4$	c #4DD4AA",
"5$	c #4DCBA3",
"6$	c #5BDAB0",
"7$	c #41B78D",
"8$	c #57C4A2",
"9$	c #42B08C",
"0$	c #2EA17E",
"a$	c #32AE85",
"b$	c #50B491",
"c$	c #59B994",
"d$	c #49AA85",
"e$	c #40A17D",
"f$	c #43A080",
"g$	c #5EB498",
"h$	c #4CA786",
"i$	c #49B28E",
"j$	c #439D7F",
"k$	c #519F88",
"l$	c #56B9A1",
"m$	c #38947C",
"n$	c #4AA589",
"o$	c #2AAC7F",
"p$	c #30C894",
"q$	c #3CB990",
"r$	c #4CD3AF",
"s$	c #60E4BC",
"t$	c #45C193",
"u$	c #4AAE8A",
"v$	c #4BC2A1",
"w$	c #47C99A",
"x$	c #3EBD91",
"y$	c #42C39C",
"z$	c #228F6B",
"A$	c #3EA784",
"B$	c #348768",
"C$	c #43A482",
"D$	c #4CC19E",
"E$	c #2F9879",
"F$	c #188A66",
"G$	c #29A57C",
"H$	c #2F9D76",
"I$	c #55BE97",
"J$	c #4A9C7C",
"K$	c #3DA07B",
"L$	c #5BBB9A",
"M$	c #5FC0A0",
"N$	c #49CEA2",
"O$	c #28AC80",
"P$	c #40A384",
"Q$	c #3B9680",
"R$	c #44B197",
"S$	c #34A88B",
"T$	c #479F84",
"U$	c #299B70",
"V$	c #3BA47D",
"W$	c #50BC96",
"X$	c #49B697",
"Y$	c #55C6A4",
"Z$	c #3E9273",
"`$	c #3D9273",
" %	c #39B28A",
".%	c #46C599",
"+%	c #45AB85",
"@%	c #47BA94",
"#%	c #2E9875",
"$%	c #37AE87",
"%%	c #48AE88",
"&%	c #4EC9A4",
"*%	c #42B898",
"=%	c #197E5F",
"-%	c #1D9C75",
";%	c #1D8D6E",
">%	c #24926E",
",%	c #359671",
"'%	c #409977",
")%	c #44B08A",
"!%	c #51A286",
"~%	c #4BCEA4",
"{%	c #39C896",
"]%	c #48B790",
"^%	c #3B8D73",
"/%	c #379783",
"(%	c #3FB096",
"_%	c #40A98F",
":%	c #359C78",
"<%	c #26A173",
"[%	c #28906A",
"}%	c #4ABC96",
"|%	c #4DC49B",
"1%	c #48A88F",
"2%	c #46B792",
"3%	c #41AE88",
"4%	c #49C79C",
"5%	c #4ABF9A",
"6%	c #47A486",
"7%	c #3EA789",
"8%	c #39A483",
"9%	c #30A079",
"0%	c #308D6E",
"a%	c #47C1A1",
"b%	c #1E9871",
"c%	c #188764",
"d%	c #258B6B",
"e%	c #26826A",
"f%	c #2D846A",
"g%	c #369B78",
"h%	c #38BE8F",
"i%	c #3DB989",
"j%	c #50B695",
"k%	c #50D2A8",
"l%	c #4FDBAD",
"m%	c #399475",
"n%	c #349278",
"o%	c #52C8B0",
"p%	c #38957C",
"q%	c #299878",
"r%	c #4CC49D",
"s%	c #2BA97D",
"t%	c #48BD99",
"u%	c #47B792",
"v%	c #3FBE94",
"w%	c #399E7D",
"x%	c #55CDAE",
"y%	c #46BA94",
"z%	c #37AE83",
"A%	c #3DA385",
"B%	c #3B9275",
"C%	c #1F7457",
"D%	c #218162",
"E%	c #22795A",
"F%	c #28775F",
"G%	c #298063",
"H%	c #168464",
"I%	c #118062",
"J%	c #268A6C",
"K%	c #34B58B",
"L%	c #22AB7A",
"M%	c #2EC490",
"N%	c #46D2A4",
"O%	c #32B382",
"P%	c #4ACAA0",
"Q%	c #3C9675",
"R%	c #418C71",
"S%	c #47D2AD",
"T%	c #47C2A7",
"U%	c #22725A",
"V%	c #4AB396",
"W%	c #379B7B",
"X%	c #3BAC84",
"Y%	c #3EB58F",
"Z%	c #4EC49D",
"`%	c #44C79E",
" &	c #50D1A5",
".&	c #50C3A4",
"+&	c #4FCCA7",
"@&	c #3EB189",
"#&	c #23755A",
"$&	c #207C60",
"%&	c #36A37B",
"&&	c #278663",
"*&	c #2E755E",
"=&	c #3D685B",
"-&	c #437F6A",
";&	c #379A7E",
">&	c #3A977D",
",&	c #51C49F",
"'&	c #25A67B",
")&	c #27B88B",
"!&	c #26BF8C",
"~&	c #21A879",
"{&	c #1F9872",
"]&	c #3AC292",
"^&	c #46B98F",
"/&	c #3E9978",
"(&	c #3BA281",
"_&	c #46C6A6",
":&	c #379179",
"<&	c #3B8A73",
"[&	c #307B64",
"}&	c #42B191",
"|&	c #36AC82",
"1&	c #38B491",
"2&	c #40B58F",
"3&	c #4FD1AF",
"4&	c #4CDCAF",
"5&	c #47BF9C",
"6&	c #2F8568",
"7&	c #196A4E",
"8&	c #168764",
"9&	c #249A73",
"0&	c #267C5F",
"a&	c #328F74",
"b&	c #2C8E71",
"c&	c #1E8C6A",
"d&	c #26A47F",
"e&	c #378E70",
"f&	c #46A886",
"g&	c #4BBA95",
"h&	c #3AAE90",
"i&	c #2DBA8D",
"j&	c #41C398",
"k&	c #35A881",
"l&	c #4AC7A2",
"m&	c #2AA87B",
"n&	c #51C9A0",
"o&	c #278869",
"p&	c #54D6B6",
"q&	c #2B8D72",
"r&	c #469E87",
"s&	c #3C8E76",
"t&	c #3EA485",
"u&	c #42CA99",
"v&	c #42B68B",
"w&	c #319F79",
"x&	c #56E7C1",
"y&	c #37A580",
"z&	c #41A983",
"A&	c #337F6A",
"B&	c #275E4D",
"C&	c #1C7E60",
"D&	c #209674",
"E&	c #2AA57E",
"F&	c #1C8563",
"G&	c #1D8D6A",
"H&	c #35C69C",
"I&	c #22A47D",
"J&	c #1FA981",
"K&	c #258E6B",
"L&	c #3CA584",
"M&	c #45B990",
"N&	c #4DBC99",
"O&	c #44AF93",
"P&	c #3AB590",
"Q&	c #31A682",
"R&	c #2DA381",
"S&	c #44B895",
"T&	c #4BBC9A",
"U&	c #297F63",
"V&	c #42B596",
"W&	c #2E9375",
"X&	c #46A385",
"Y&	c #3D907C",
"Z&	c #4DBA9A",
"`&	c #42B58C",
" *	c #4CC59C",
".*	c #4CBE96",
"+*	c #409F7D",
"@*	c #3D9274",
"#*	c #4E9880",
"$*	c #387060",
"%*	c #2D7E68",
"&*	c #309F7D",
"**	c #31A07D",
"=*	c #2D9A74",
"-*	c #229E77",
";*	c #27A67D",
">*	c #33B98F",
",*	c #2EC599",
"'*	c #2F9776",
")*	c #47B392",
"!*	c #32A589",
"~*	c #2F8F75",
"{*	c #48977C",
"]*	c #48977F",
"^*	c #4DB69A",
"/*	c #3A9B7F",
"(*	c #1D916E",
"_*	c #3EBA94",
":*	c #4CBE9C",
"<*	c #34856A",
"[*	c #42A488",
"}*	c #5ECCA8",
"|*	c #389C82",
"1*	c #40A48E",
"2*	c #5DBEA1",
"3*	c #56BE99",
"4*	c #5EC19E",
"5*	c #51AF8E",
"6*	c #48A080",
"7*	c #49B591",
"8*	c #4BAD8A",
"9*	c #2F725C",
"0*	c #369378",
"a*	c #49B090",
"b*	c #359776",
"c*	c #23916E",
"d*	c #2EAB82",
"e*	c #26AD83",
"f*	c #139168",
"g*	c #229971",
"h*	c #3EA27F",
"i*	c #3EB596",
"j*	c #4EB39B",
"k*	c #328B77",
"l*	c #519B84",
"m*	c #469A7D",
"n*	c #4FB196",
"o*	c #298168",
"p*	c #1A8F70",
"q*	c #34A07E",
"r*	c #579F88",
"s*	c #49836F",
"t*	c #2F8068",
"u*	c #4EC5A6",
"v*	c #3C8170",
"w*	c #419A82",
"x*	c #4EA789",
"y*	c #57BD97",
"z*	c #4BB18A",
"A*	c #309F79",
"B*	c #4AD2A7",
"C*	c #4FDDAB",
"D*	c #48C395",
"E*	c #3D8F70",
"F*	c #387C65",
"G*	c #33876A",
"H*	c #278F6B",
"I*	c #1A996C",
"J*	c #25AA7C",
"K*	c #25B185",
"L*	c #21B789",
"M*	c #27B685",
"N*	c #33A67C",
"O*	c #3A977A",
"P*	c #50A691",
"Q*	c #52A892",
"R*	c #419579",
"S*	c #38A783",
"T*	c #3BA689",
"U*	c #2A886F",
"V*	c #38BB99",
"W*	c #5AAE93",
"X*	c #4AA083",
"Y*	c #2D7E62",
"Z*	c #3B8B75",
"`*	c #4A8E7B",
" =	c #2C7F69",
".=	c #389175",
"+=	c #3CA37E",
"@=	c #4FB68E",
"#=	c #389773",
"$=	c #4DC99C",
"%=	c #57C59B",
"&=	c #52C69C",
"*=	c #4AA482",
"==	c #419C7D",
"-=	c #1E7758",
";=	c #128761",
">=	c #29A77F",
",=	c #32AD84",
"'=	c #24B88C",
")=	c #2ED3A3",
"!=	c #36B68D",
"~=	c #3EA783",
"{=	c #3F9478",
"]=	c #2D765E",
"^=	c #48A184",
"/=	c #53BB9B",
"(=	c #47C0A0",
"_=	c #27987B",
":=	c #38B18E",
"<=	c #2DA282",
"[=	c #59B696",
"}=	c #59BE9B",
"|=	c #5BAD91",
"1=	c #57B596",
"2=	c #3D7B67",
"3=	c #3B8E78",
"4=	c #409079",
"5=	c #2A8767",
"6=	c #32A079",
"7=	c #237B5A",
"8=	c #207554",
"9=	c #1F8B65",
"0=	c #3CB189",
"a=	c #5DD7AD",
"b=	c #58B795",
"c=	c #4DC09B",
"d=	c #2E9F7D",
"e=	c #2B9375",
"f=	c #40C29C",
"g=	c #34C499",
"h=	c #2DAD89",
"i=	c #50BE9E",
"j=	c #48B994",
"k=	c #4CAE8E",
"l=	c #4D9D85",
"m=	c #307A62",
"n=	c #3EAF90",
"o=	c #41B79A",
"p=	c #3DAB8A",
"q=	c #37A282",
"r=	c #1F8E6E",
"s=	c #27916B",
"t=	c #58C19A",
"u=	c #51A687",
"v=	c #4A9E82",
"w=	c #37846C",
"x=	c #53D6B4",
"y=	c #43AE90",
"z=	c #54C9A5",
"A=	c #33AD84",
"B=	c #3AA77F",
"C=	c #21825F",
"D=	c #269D74",
"E=	c #4BD9AA",
"F=	c #55CAA3",
"G=	c #57C69D",
"H=	c #48B38B",
"I=	c #399679",
"J=	c #2F9073",
"K=	c #2CA17C",
"L=	c #55E8BB",
"M=	c #24B286",
"N=	c #26A482",
"O=	c #1C8F71",
"P=	c #42A085",
"Q=	c #499F87",
"R=	c #4B9E84",
"S=	c #54C4A8",
"T=	c #50D1B0",
"U=	c #249B78",
"V=	c #1A8667",
"W=	c #259A7A",
"X=	c #298262",
"Y=	c #4F9F83",
"Z=	c #337960",
"`=	c #3A836A",
" -	c #4DB394",
".-	c #53CDA6",
"+-	c #257C5F",
"@-	c #2C8C6C",
"#-	c #249873",
"$-	c #29A97F",
"%-	c #23A87D",
"&-	c #2EC191",
"*-	c #2BB085",
"=-	c #2BB087",
"--	c #46CCA0",
";-	c #3ABE93",
">-	c #33A07E",
",-	c #2C9B76",
"'-	c #3AAA87",
")-	c #188965",
"!-	c #1E8666",
"~-	c #3AB595",
"{-	c #269679",
"]-	c #41947D",
"^-	c #4BAB8E",
"/-	c #47A286",
"(-	c #349D82",
"_-	c #26987A",
":-	c #1F886C",
"<-	c #1B836A",
"[-	c #389173",
"}-	c #4F9A7E",
"|-	c #56A48B",
"1-	c #4BA888",
"2-	c #268765",
"3-	c #54C8A1",
"4-	c #61D5B0",
"5-	c #53A68A",
"6-	c #2B8566",
"7-	c #39A882",
"8-	c #249E76",
"9-	c #31BC8D",
"0-	c #2AC092",
"a-	c #27B589",
"b-	c #25B68B",
"c-	c #32BC8F",
"d-	c #4AD4A5",
"e-	c #45C697",
"f-	c #2E9A72",
"g-	c #2C926E",
"h-	c #2E9A76",
"i-	c #349C7A",
"j-	c #1B7C5C",
"k-	c #309A7B",
"l-	c #50A58C",
"m-	c #45A086",
"n-	c #4BA185",
"o-	c #266F59",
"p-	c #21977A",
"q-	c #1FA983",
"r-	c #249A78",
"s-	c #289676",
"t-	c #3E9275",
"u-	c #4FAF8F",
"v-	c #4DAE8F",
"w-	c #4AB491",
"x-	c #317F61",
"y-	c #47B18E",
"z-	c #49B998",
"A-	c #36AE8A",
"B-	c #3AB993",
"C-	c #44D6AB",
"D-	c #2EBD90",
"E-	c #26B98A",
"F-	c #1FB383",
"G-	c #23BF8B",
"H-	c #2EC38F",
"I-	c #27A878",
"J-	c #29A979",
"K-	c #49C496",
"L-	c #38A079",
"M-	c #3C9C7A",
"N-	c #4FAE8E",
"O-	c #46B290",
"P-	c #4AB090",
"Q-	c #52A086",
"R-	c #4A977B",
"S-	c #57BA96",
"T-	c #358A6D",
"U-	c #2E8D72",
"V-	c #3DB294",
"W-	c #1C9B74",
"X-	c #46B190",
"Y-	c #49A588",
"Z-	c #49A181",
"`-	c #4FA88A",
" ;	c #489279",
".;	c #2F7D62",
"+;	c #3C8A6C",
"@;	c #47AD8A",
"  . + @ # $ % & * = - ; > , ' ) ! ~ { ] ^ / ( _ : < [ } | 1 2 3 ",
"4 5 6 7 8 9 0 a b c d e f g h i j k l m n o p q r s t u v w x y ",
"z A B C D E F G H I J K L M N O P Q R S T U V W X Y Z `  ...+.@.",
"#.$.%.&.*.=.-.;.>.,.'.).!.~.{.].^./.(._.:.<.[.}.|.1.2.3.4.5.6.7.",
"8.9.0.a.b.c.d.e.f.g.h.i.j.k.l.m.n.o.p.q.r.s.t.u.v.w.x.y.z.A.B.C.",
"D.E.F.G.H.I.J.K.L.M.N.O.P.Q.R.S.T.U.V.W.X.Y.Z.`. +.+++@+#+$+%+&+",
"*+=+-+;+>+,+'+)+!+~+{+]+^+/+(+_+:+<+[+}+|+1+2+3+4+5+6+7+8+9+0+a+",
"b+c+d+e+f+g+h+i+j+k+l+m+n+o+p+q+r+s+t+u+a.v+w+x+y+z+A+B+C+D+E+F+",
"q+G+H+I+J+K+L+M+N+O+P+Q+R+S+T+U+V+W+X+Y+Z+`+ @.@+@@@#@$@%@&@*@=@",
"-@;@>@,@'@)@!@~@{@]@^@/@(@_@:@<@[@}@|@1@2@3@4@5@6@7@8@9@0@a@b@c@",
"d@e@f@g@h@i@j@k@l@m@n@o@p@q@r@s@t@u@v@w@x@y@z@A@B@C@D@E@F@G@H@I@",
"J@K@L@M@N@O@P@Q@R@S@T@U@V@W@X@Y@Z@`@ #.#+#@###$#%#&#*#=#-#;#>#,#",
"'#)#!#~#{#]#^#/#(#_#:#<#[#}#|#1#2#3#4#5#6#7#8#9#0#a#b#c#d#e#f#g#",
"h#i#j#k#l#m#n#o#p#q#r#s#t#u#v#w#x#y#z#A#B#C#D#E#F#G#H#I#J#K#L#M#",
"N#O#P#Q#R#S#T#U#V#W#X#Y#Z#`# $.$+$@$#$$$%$&$*$=$-$;$>$,$'$)$!$~$",
"{$]$^$/$($_$:$<$[$}$|$1$2$3$4$5$6$7$8$9$0$a$b$c$d$e$f$g$h$i$j$k$",
"l$m$n$o$p$q$r$s$t$u$v$w$x$y$z$A$B$C$D$E$F$G$H$I$J$K$L$M$N$O$P$Q$",
"R$S$T$U$V$W$X$Y$Z$`$ %.%+%@%#%$%%%&%*%=%-%;%>%,%'%)%!%~%{%]%^%/%",
"(%_%:%<%[%}%|%1%2%3%4%5%6%7%8%9%0%a%b%c%d%e%f%g%h%i%j%k%l%m%n%o%",
"p%q%r%s%t%u%v%w%x%y%z%A%B%C%D%E%F%G%u@H%I%J%K%L%M%N%O%P%Q%R%S%T%",
"U%V%W%X%Y%Z%`% &.&+&@&#&$&%&&&*&=&-&;&>&,&'&)&!&~&{&]&^&/&(&_&:&",
"<&[&}&|&1&2&3&4&w$5&6&7&8&9&0&a&b&c&d&e&f&g&h&i&j&k&l&m&n&o&p&q&",
"r&s&t&u&v&w&x&y&z&A&B&C&D&E&F&G&H&I&J&K&L&M&N&O&P&Q&R&S&T&U&V&W&",
"X&Y&Z&`& *.*+*@*#*$*%*&***=*-*;*>*,*'*)*!*~*{*]*^*/*(*_*:*<*[*}*",
"|*1*2*3*4*5*6*7*8*9*0*a*b*c*d*e*f*g*h*i*j*k*l*m*n*o*p*q*r*s*t*u*",
"v*w*x*y*z*A*B*C*D*E*F*G*H*I*J*K*L*M*N*O*P*Q*R*S*T*U*V*e W*X*Y*Z*",
"`* =.=+=@=#=$=%=&=*===-=;=>=,='=)=!=~={=]=^=/=(=_=:=<=[=}=|=1=2=",
"3=4=5=6=7=8=9=0=a=5@b=c=d=e=f=g=h=i=j=k=l=m=n=o=p=q=r=s=t=u=v=w=",
"x=y=z=A=B=C=D=E=F=G=H=I=J=K=L=M=N=O=>.P=Q=R=S=T=U=V=W=X=Y=Z=`= -",
".-+-@-#-$-%-&-*-=---;--*>-,-'-)-!-~-{-]-^-/-(-_-:-<-[-}-|-1-2-3-",
"4-5-6-7-8-9-0-a-b-c-d-e-f-g-h-i-j-k-l-m-n-o-p-q-r-s-t-u-v-w-x-y-",
"z-A-B-C-D-E-F-G-H-I-J-K-L-M-N-O-P-Q-R-S-T-U-V-W-X-Y-Z-`- ;.;+;@;"};
