/* XPM */
static char * collect_32_xpm[] = {
"32 32 72 1",
" 	c None",
".	c #000000",
"+	c #67656A",
"@	c #443E42",
"#	c #A29FA1",
"$	c #6C5255",
"%	c #FFFFFF",
"&	c #B49A9D",
"*	c #483437",
"=	c #240A0E",
"-	c #928C8E",
";	c #DED5D6",
">	c #7F7F7F",
",	c #24191D",
"'	c #C6B2B4",
")	c #E5A2A5",
"!	c #691B27",
"~	c #FFD755",
"{	c #EF7684",
"]	c #F6A9AC",
"^	c #ED7382",
"/	c #B23030",
"(	c #060606",
"_	c #CB4D53",
":	c #CB626F",
"<	c #AB5963",
"[	c #F9D1C9",
"}	c #F4A6A9",
"|	c #EE7483",
"1	c #030303",
"2	c #767275",
"3	c #8F8A8C",
"4	c #B48D93",
"5	c #FDE9E5",
"6	c #FAD3D5",
"7	c #F7B9C1",
"8	c #AF737A",
"9	c #AB5761",
"0	c #9F2B3E",
"a	c #FAD3CB",
"b	c #FAD2CA",
"c	c #EF7786",
"d	c #F8BCBE",
"e	c #FDE8E4",
"f	c #FFA2AA",
"g	c #EF7584",
"h	c #D48288",
"i	c #FBD3CC",
"j	c #E6A6A9",
"k	c #FDE7E2",
"l	c #F28E9A",
"m	c #CC4D53",
"n	c #EF7886",
"o	c #EF7987",
"p	c #F5A7AA",
"q	c #F6AAAD",
"r	c #EF7A88",
"s	c #F7B3B6",
"t	c #FBD6CF",
"u	c #FBD3CB",
"v	c #FCDCD6",
"w	c #F8C2C4",
"x	c #F7B7BF",
"y	c #D38787",
"z	c #CF585D",
"A	c #CD5258",
"B	c #B63838",
"C	c #D99898",
"D	c #D68E8E",
"E	c #D0959F",
"F	c #A02B3E",
"G	c #D58389",
"                                ",
"                                ",
"                                ",
"                                ",
"                                ",
"                                ",
"                                ",
"         .....                  ",
"       ..++@+#..                ",
"      .+$%%&*=@+..              ",
"     .-*%;;%%&>,@+..            ",
"    .@*%;'%;%*)!.,,@..          ",
"   .@.&~~%'%${]^/.,,,@..        ",
"  (@._^:&~~<[}|^^!.!!.,@..      ",
" 1234556789[^^^^}0_^^_!.,@..    ",
" .,,!^^^}ab^^^}_00[}^cde4>-#@   ",
" .,,._f^^^g^^_0h0_^^^|i|7j4-#@  ",
"  .@,._^6kl|_h00_^f^}[^}^^_>-#. ",
"   .@,>4/mi_00^[[[[[no|7p[^!,+. ",
"    ..@,...!0_f^q7^^rstuv|_.,@. ",
"      ..+,,,.!_gwx_//yzABC.,@.  ",
"        ..@,,,.!DE0h0EFG0.-@.   ",
"          ..+,,->!00hE0!.,@.    ",
"            ..+--,..!>.,,@.     ",
"              ..@,,,,-,,@.      ",
"                ..@++@+..       ",
"                  .....         ",
"                                ",
"                                ",
"                                ",
"                                ",
"                                "};
