/* XPM */
static char * exit_32_xpm[] = {
"24 32 491 2",
"  	c None",
". 	c #0464B1",
"+ 	c #0266B4",
"@ 	c #0167B5",
"# 	c #0367B3",
"$ 	c #0468B1",
"% 	c #0467B2",
"& 	c #0366B2",
"* 	c #0367B1",
"= 	c #0268B3",
"- 	c #0365B4",
"; 	c #0266B1",
"> 	c #036AB5",
", 	c #0369B6",
"' 	c #0466B3",
") 	c #0567B1",
"! 	c #0468B4",
"~ 	c #036AB8",
"{ 	c #066BB4",
"] 	c #066AB2",
"^ 	c #0467B0",
"/ 	c #0465AE",
"( 	c #0164B2",
"_ 	c #0265B0",
": 	c #0367B2",
"< 	c #0468B3",
"[ 	c #0466B2",
"} 	c #0364B1",
"| 	c #0368B3",
"1 	c #0364B0",
"2 	c #036AB4",
"3 	c #0268B2",
"4 	c #0368B2",
"5 	c #0269B5",
"6 	c #0368B5",
"7 	c #0468B0",
"8 	c #0568B3",
"9 	c #0367B4",
"0 	c #0468B2",
"a 	c #0263B0",
"b 	c #0165B1",
"c 	c #0363AF",
"d 	c #0165B0",
"e 	c #075B9D",
"f 	c #0A4174",
"g 	c #093E74",
"h 	c #0A4276",
"i 	c #094174",
"j 	c #083F72",
"k 	c #094274",
"l 	c #094476",
"m 	c #084374",
"n 	c #064376",
"o 	c #094276",
"p 	c #0B4174",
"q 	c #0A4273",
"r 	c #094275",
"s 	c #094175",
"t 	c #084174",
"u 	c #045A9D",
"v 	c #0267B2",
"w 	c #0365B1",
"x 	c #0567B4",
"y 	c #0364AE",
"z 	c #0266B2",
"A 	c #055A9D",
"B 	c #0A3A67",
"C 	c #0D0000",
"D 	c #0E0000",
"E 	c #0C0000",
"F 	c #0B0000",
"G 	c #0A0000",
"H 	c #093A67",
"I 	c #065B9C",
"J 	c #0469B2",
"K 	c #0569B5",
"L 	c #084478",
"M 	c #0C0009",
"N 	c #0E000B",
"O 	c #0C000A",
"P 	c #0B0009",
"Q 	c #0D0009",
"R 	c #0D000A",
"S 	c #0E000A",
"T 	c #0A0008",
"U 	c #0B0008",
"V 	c #074577",
"W 	c #0369B2",
"X 	c #0265B1",
"Y 	c #084378",
"Z 	c #10000C",
"` 	c #090000",
" .	c #054277",
"..	c #0366B0",
"+.	c #0366AF",
"@.	c #0467B3",
"#.	c #08447A",
"$.	c #090007",
"%.	c #080006",
"&.	c #0A0007",
"*.	c #0C0008",
"=.	c #0C0002",
"-.	c #026AB7",
";.	c #0267B3",
">.	c #024989",
",.	c #071643",
"'.	c #0D0110",
").	c #0C0110",
"!.	c #0C010F",
"~.	c #0A010F",
"{.	c #0D0111",
"].	c #0E0111",
"^.	c #0B0110",
"/.	c #0B010F",
"(.	c #061746",
"_.	c #034889",
":.	c #0366B1",
"<.	c #0368B1",
"[.	c #0167B4",
"}.	c #0268B4",
"|.	c #0160A7",
"1.	c #024583",
"2.	c #041A52",
"3.	c #041952",
"4.	c #051950",
"5.	c #051B51",
"6.	c #051B52",
"7.	c #041A51",
"8.	c #051952",
"9.	c #051954",
"0.	c #051853",
"a.	c #051A53",
"b.	c #061B53",
"c.	c #061C55",
"d.	c #041D58",
"e.	c #041B53",
"f.	c #031B52",
"g.	c #034686",
"h.	c #0260A9",
"i.	c #0469B1",
"j.	c #0166B3",
"k.	c #025EA6",
"l.	c #025194",
"m.	c #015095",
"n.	c #005094",
"o.	c #015094",
"p.	c #025193",
"q.	c #015093",
"r.	c #014F94",
"s.	c #035095",
"t.	c #025197",
"u.	c #015196",
"v.	c #005196",
"w.	c #025296",
"x.	c #015398",
"y.	c #035EA8",
"z.	c #0368B4",
"A.	c #0566B1",
"B.	c #0259A2",
"C.	c #02549D",
"D.	c #02569F",
"E.	c #0258A2",
"F.	c #0157A3",
"G.	c #0258A1",
"H.	c #0258A0",
"I.	c #0256A1",
"J.	c #0457A1",
"K.	c #0259A4",
"L.	c #0259A3",
"M.	c #0158A3",
"N.	c #0257A2",
"O.	c #0358A2",
"P.	c #025AA3",
"Q.	c #0257A0",
"R.	c #0255A1",
"S.	c #0255A0",
"T.	c #0258A3",
"U.	c #0663B0",
"V.	c #004591",
"W.	c #02428D",
"X.	c #02418C",
"Y.	c #01418C",
"Z.	c #01438E",
"`.	c #01438F",
" +	c #01418D",
".+	c #01408D",
"++	c #013E8B",
"@+	c #01418F",
"#+	c #01418E",
"$+	c #00418C",
"%+	c #01428E",
"&+	c #02438E",
"*+	c #02418D",
"=+	c #01428D",
"-+	c #014590",
";+	c #0363B1",
">+	c #0266B3",
",+	c #0365AF",
"'+	c #0365AD",
")+	c #0367AE",
"!+	c #0363B0",
"~+	c #0264B0",
"{+	c #0362B0",
"]+	c #0262B0",
"^+	c #0166B2",
"/+	c #0364AF",
"(+	c #0464AF",
"_+	c #0167B1",
":+	c #046AB3",
"<+	c #056AB4",
"[+	c #036AB6",
"}+	c #036BB5",
"|+	c #036CB2",
"1+	c #026AB2",
"2+	c #0667B2",
"3+	c #216BB4",
"4+	c #266DB5",
"5+	c #256EB4",
"6+	c #256BB3",
"7+	c #256CB6",
"8+	c #246DB5",
"9+	c #246EB6",
"0+	c #256DB6",
"a+	c #206AB4",
"b+	c #0266B0",
"c+	c #0467AF",
"d+	c #0166B0",
"e+	c #256FB4",
"f+	c #90B4D7",
"g+	c #A2C6E1",
"h+	c #9FC5E0",
"i+	c #A1C5E0",
"j+	c #9FC3DF",
"k+	c #9FC5E2",
"l+	c #9EC2DE",
"m+	c #9CC2DF",
"n+	c #A0C5E1",
"o+	c #8DB3D5",
"p+	c #246EB4",
"q+	c #0467B1",
"r+	c #0465B0",
"s+	c #0265AF",
"t+	c #0168B2",
"u+	c #0269B6",
"v+	c #0465B1",
"w+	c #0064B1",
"x+	c #2C73B6",
"y+	c #A7C8E3",
"z+	c #BEDFF1",
"A+	c #BBDDF0",
"B+	c #BCDEF0",
"C+	c #BDDEEF",
"D+	c #BBDEF0",
"E+	c #BADDEE",
"F+	c #B8DCEE",
"G+	c #A5C8E1",
"H+	c #2C6FB5",
"I+	c #0068B4",
"J+	c #0466B1",
"K+	c #0167B3",
"L+	c #026AB6",
"M+	c #0366B3",
"N+	c #0269B4",
"O+	c #0065B2",
"P+	c #216FB4",
"Q+	c #83B2CE",
"R+	c #97C5D8",
"S+	c #95C3D7",
"T+	c #95C4D7",
"U+	c #98C4D6",
"V+	c #94C2D5",
"W+	c #94C4D7",
"X+	c #93C3D7",
"Y+	c #96C5D8",
"Z+	c #84B3D0",
"`+	c #0067B3",
" @	c #0265B2",
".@	c #0267B5",
"+@	c #0268B5",
"@@	c #0B69B2",
"#@	c #3690B1",
"$@	c #3F9EB1",
"%@	c #3F9DB1",
"&@	c #409CB2",
"*@	c #3F9AB1",
"=@	c #3D99AE",
"-@	c #3F9DB3",
";@	c #409DB2",
">@	c #419EB3",
",@	c #3994B5",
"'@	c #0B68B2",
")@	c #036AB3",
"!@	c #0569B2",
"~@	c #0469B4",
"{@	c #0369B4",
"]@	c #036BB6",
"^@	c #126BB4",
"/@	c #5398B9",
"(@	c #5EA7BA",
"_@	c #5EA8BC",
":@	c #61A9BF",
"<@	c #5FA7BC",
"[@	c #61ABBE",
"}@	c #62AABE",
"|@	c #62A9BD",
"1@	c #539AB8",
"2@	c #126AB1",
"3@	c #026AB3",
"4@	c #056AB2",
"5@	c #0168B1",
"6@	c #0069B6",
"7@	c #2871B7",
"8@	c #99C0DD",
"9@	c #AFD3E6",
"0@	c #ACD1E5",
"a@	c #ACD3E7",
"b@	c #ABD2E5",
"c@	c #ABD4E8",
"d@	c #ADD4E7",
"e@	c #AFD4E7",
"f@	c #B0D6E8",
"g@	c #97BFD9",
"h@	c #2771B2",
"i@	c #0269B3",
"j@	c #0367AF",
"k@	c #0267B1",
"l@	c #056AB3",
"m@	c #0165B2",
"n@	c #0065B4",
"o@	c #2A71B5",
"p@	c #A2C6E0",
"q@	c #BADBEC",
"r@	c #B8D8EB",
"s@	c #B6D9ED",
"t@	c #B4D9ED",
"u@	c #B7DAED",
"v@	c #B8DBEF",
"w@	c #B6D9EC",
"x@	c #B7DAEC",
"y@	c #9FC4DF",
"z@	c #0169B2",
"A@	c #2A70B5",
"B@	c #BBDBEC",
"C@	c #B8D9EB",
"D@	c #B5D8EB",
"E@	c #B7DBED",
"F@	c #B8DBED",
"G@	c #B7D9EB",
"H@	c #B6D9EB",
"I@	c #9DC2DD",
"J@	c #296FB5",
"K@	c #0366B4",
"L@	c #0465B2",
"M@	c #0068B3",
"N@	c #2A71B6",
"O@	c #B8DAED",
"P@	c #BBDCEE",
"Q@	c #BADDEF",
"R@	c #B9DBED",
"S@	c #9BC1DD",
"T@	c #286DB2",
"U@	c #046BB3",
"V@	c #0467B4",
"W@	c #0365B2",
"X@	c #216DB4",
"Y@	c #83ACD2",
"Z@	c #95BDDC",
"`@	c #95BDDB",
" #	c #9ABEDC",
".#	c #9CBFDD",
"+#	c #9BC0DD",
"@#	c #9BBFDD",
"##	c #98BDDB",
"$#	c #95BCDB",
"%#	c #7EA9D1",
"&#	c #1F69B0",
"*#	c #0163B1",
"=#	c #0264B1",
"-#	c #0569B4",
";#	c #0565B2",
">#	c #0465AF",
",#	c #1469B2",
"'#	c #186BB5",
")#	c #196BB5",
"!#	c #196CB4",
"~#	c #1969B2",
"{#	c #1868B1",
"]#	c #176AB3",
"^#	c #136AB4",
"/#	c #0264AF",
"(#	c #0264AE",
"_#	c #0365AE",
":#	c #0167B2",
"<#	c #0265B3",
"[#	c #0166B4",
"}#	c #0366AE",
"|#	c #0263AF",
"1#	c #0466AF",
"2#	c #0267B0",
"3#	c #0367B0",
"4#	c #014D9A",
"5#	c #024490",
"6#	c #024691",
"7#	c #014591",
"8#	c #004692",
"9#	c #014692",
"0#	c #014691",
"a#	c #02458F",
"b#	c #02468F",
"c#	c #014690",
"d#	c #01458E",
"e#	c #02468E",
"f#	c #024791",
"g#	c #01458F",
"h#	c #01448F",
"i#	c #024E9A",
"j#	c #025BA4",
"k#	c #01559E",
"l#	c #01549E",
"m#	c #01529E",
"n#	c #02509E",
"o#	c #03539F",
"p#	c #03559F",
"q#	c #02539E",
"r#	c #02529D",
"s#	c #02539C",
"t#	c #01529D",
"u#	c #02549C",
"v#	c #02559D",
"w#	c #02549E",
"x#	c #04539F",
"y#	c #02519D",
"z#	c #035AA4",
"A#	c #0469B3",
"B#	c #03559A",
"C#	c #02589B",
"D#	c #01589C",
"E#	c #01579C",
"F#	c #02559C",
"G#	c #02529C",
"H#	c #04579D",
"I#	c #02569D",
"J#	c #01559B",
"K#	c #02559A",
"L#	c #025599",
"M#	c #01549A",
"N#	c #02569A",
"O#	c #01579B",
"P#	c #01569D",
"Q#	c #02569E",
"R#	c #03559B",
"S#	c #02549B",
"T#	c #03589B",
"U#	c #02589C",
"V#	c #02569B",
"W#	c #04589B",
"X#	c #02215A",
"Y#	c #021F5A",
"Z#	c #031F5A",
"`#	c #03205A",
" $	c #03215A",
".$	c #03225B",
"+$	c #022059",
"@$	c #04205C",
"#$	c #03205B",
"$$	c #042059",
"%$	c #052159",
"&$	c #042157",
"*$	c #031D59",
"=$	c #031E59",
"-$	c #03215C",
";$	c #03225E",
">$	c #032159",
",$	c #042058",
"'$	c #042159",
")$	c #04215B",
"!$	c #05215C",
"~$	c #090316",
"{$	c #090317",
"]$	c #0A0318",
"^$	c #0B0318",
"/$	c #0C0319",
"($	c #0C0318",
"_$	c #0F031A",
":$	c #070316",
"<$	c #0A0317",
"[$	c #0B0317",
"}$	c #0D0318",
"|$	c #0E0318",
"1$	c #0D0319",
"2$	c #0E0319",
"  . + @ # $ % # & * = - ; > , ' ) ! ~ { ] ^ /   ",
"( _ : < [ } | & 1 * 2 3 4 5 6 : 7 8 9 0 * _ a b ",
"c d = e f g h i j k l k m n o p q r s t u v w x ",
"y z A B C C C D E E C E E F E D C G F F H I J K ",
"_ # L E M M M N O P Q M R N R R S P T U F V W * ",
"X & Y E R M M R M U M M N Z N N Z N R R `  ...+.",
"@.# #.E N N M M U $.%.&.R R *.U M U R M =.Y ^ $ ",
"-.;.>.,.'.'.'.).'.!.~.'.{.{.].].].^.)./.(._.:.<.",
"[.}.|.1.2.3.4.5.6.7.7.8.9.0.a.b.c.d.e.f.g.h.4 i.",
"j.4 3 k.l.m.n.o.p.q.r.s.t.u.v.u.w.x.q.r.y.z.: A.",
"+ B.C.D.E.F.F.G.H.H.I.J.K.L.M.N.O.P.Q.R.R.S.T.U.",
"  V.W.X.Y.Z.`. + + +.+++@+#+ +$+Y.%+&+*+=+=+-+  ",
";+>+& ,+'+)+:.!+a ~+a {+]+b ^+b d ,+/+,+(+c ~+_+",
":+<+[+}+|+1+2+3+4+5+5+6+7+8+9+0+a+A.b+~+c+7 _+v ",
"|+< }.= ^ d+e+f+g+h+i+j+k+l+m+n+o+p+3 q+r+s+t+u+",
"$ & = W v+w+x+y+z+A+B+C+D+E+F+B+G+H+I+& J+; K+L+",
"q+M+[.N+# O+P+Q+R+S+T+U+V+W+X+Y+Z+3+`+v $ *  @| ",
"q+z..@+@N+! @@#@$@%@&@*@=@-@;@>@,@'@b+)@i...& <.",
"& !@<+~@{@]@^@/@(@_@:@<@<@[@}@|@1@2@& z.0 0 | 3@",
"4@$ v _+5@6@7@8@9@0@a@b@c@d@e@f@g@h@i@6 <.j@z k@",
"l@!@0 v m@n@o@p@q@r@s@t@u@v@w@x@y@o@z@K+ @w v+& ",
"~@@.[ & M+m@A@y@B@C@D@w@E@F@G@H@I@J@t+}.;.z & i@",
"z.M+K@' L@M@N@h+F+x@O@P@Q@Q@R@x@S@T@3 {@K+m@z U@",
"' z z.V@W@M@X@Y@Z@`@ #.#+#@###$#%#&#s+q+; *#=#-#",
";#W@<.W | & >#,#'#'#)#)#!#~#{#]#^#/#(#_#J+....[.",
":+* : 0 % L@:#i@j.<#: 4 K+# } a _ t+1+t+q+) ^ * ",
"* 1 v+< # ^+[#4 :.r+c+}#* r+|#(#1#2#$ 3#,+1 w z@",
"~+4#5#6#7#8#9#0#-+a#b#-+c#Z.Z.d#e#f#b#g#h#%+i#; ",
"J+j#k#l#m#n#o#p#q#r#s#r#t#u#v#l#w#x#y#s#v#w#z#A#",
"B#C#D#E#F#G#u#H#I#J#K#L#M#N#O#P#Q#R#S#N#T#U#V#W#",
"X#Y#Z#`# $.$+$@$#$$$%$&$+$*$=$-$;$ $>$ $,$'$)$!$",
"~${$]$]${$^${$/$]$($_$($:${$<$^$/$^$[$}$|$}$1$2$"};
