/* XPM */
static char * exit_xpm[] = {
"20 27 334 2",
"  	c None",
". 	c #0464B1",
"+ 	c #0067B6",
"@ 	c #0366B4",
"# 	c #0469B1",
"$ 	c #0467B2",
"% 	c #0367B3",
"& 	c #0365B1",
"* 	c #0269B2",
"= 	c #0365B5",
"- 	c #0265B0",
"; 	c #046CB7",
"> 	c #0367B5",
", 	c #0666B0",
"' 	c #0468B3",
") 	c #036BB9",
"! 	c #076BB2",
"~ 	c #0569B2",
"{ 	c #0465AE",
"] 	c #0164B2",
"^ 	c #0266AF",
"/ 	c #0468B2",
"( 	c #0568B2",
"_ 	c #0362B1",
": 	c #0369B4",
"< 	c #0364AE",
"[ 	c #046CB6",
"} 	c #0268B1",
"| 	c #036AB2",
"1 	c #0169B6",
"2 	c #0467B4",
"3 	c #0268AF",
"4 	c #0669B3",
"5 	c #0366B3",
"6 	c #0065B0",
"7 	c #0262B0",
"8 	c #0165B1",
"9 	c #0463AD",
"0 	c #0065B2",
"a 	c #0D000A",
"b 	c #0E000B",
"c 	c #0C0009",
"d 	c #0D0009",
"e 	c #0B0008",
"f 	c #090007",
"g 	c #0F000B",
"h 	c #0A0007",
"i 	c #0A0008",
"j 	c #0366B0",
"k 	c #0769B6",
"l 	c #0469B4",
"m 	c #0B0009",
"n 	c #10000C",
"o 	c #0E000A",
"p 	c #036BB2",
"q 	c #0368B3",
"r 	c #0164B0",
"s 	c #0467B3",
"t 	c #11000D",
"u 	c #0F000C",
"v 	c #050004",
"w 	c #0265B1",
"x 	c #0365AE",
"y 	c #070005",
"z 	c #080006",
"A 	c #090006",
"B 	c #0467AF",
"C 	c #026BB8",
"D 	c #0166B2",
"E 	c #002562",
"F 	c #012666",
"G 	c #0264B1",
"H 	c #0368B1",
"I 	c #0064B2",
"J 	c #036AB4",
"K 	c #0167B0",
"L 	c #002465",
"M 	c #002366",
"N 	c #002362",
"O 	c #012564",
"P 	c #002463",
"Q 	c #002365",
"R 	c #002368",
"S 	c #002266",
"T 	c #002566",
"U 	c #00286D",
"V 	c #0468B4",
"W 	c #026AB2",
"X 	c #0569B1",
"Y 	c #0267B5",
"Z 	c #0365AD",
"` 	c #0263AE",
" .	c #0468B1",
"..	c #0266B2",
"+.	c #0367B1",
"@.	c #0368AE",
"#.	c #0667B1",
"$.	c #0268B3",
"%.	c #0167B4",
"&.	c #0567B2",
"*.	c #026AB4",
"=.	c #0264B2",
"-.	c #0465B0",
";.	c #0264B0",
">.	c #0664B1",
",.	c #002F7E",
"'.	c #02307E",
").	c #002E7E",
"!.	c #003181",
"~.	c #003081",
"{.	c #00307E",
"].	c #012F7F",
"^.	c #012F80",
"/.	c #002B7A",
"(.	c #003083",
"_.	c #012E7E",
":.	c #002D7D",
"<.	c #002D7B",
"[.	c #013081",
"}.	c #013280",
"|.	c #012D7F",
"1.	c #003280",
"2.	c #00307F",
"3.	c #0362B0",
"4.	c #0169B7",
"5.	c #0366AF",
"6.	c #036AB0",
"7.	c #0464B3",
"8.	c #0365B2",
"9.	c #0269B4",
"0.	c #0268B5",
"a.	c #0168B3",
"b.	c #0367B2",
"c.	c #0368B2",
"d.	c #0466B1",
"e.	c #0265B2",
"f.	c #0167B1",
"g.	c #046BB4",
"h.	c #066AB3",
"i.	c #026AB8",
"j.	c #046EB2",
"k.	c #0366B1",
"l.	c #0464B2",
"m.	c #0267B2",
"n.	c #0164B4",
"o.	c #0165B2",
"p.	c #0267B3",
"q.	c #0262B2",
"r.	c #0266B1",
"s.	c #0265AF",
"t.	c #0263AF",
"u.	c #0669AE",
"v.	c #036CB1",
"w.	c #0466B3",
"x.	c #0068B4",
"y.	c #0465AF",
"z.	c #0364B0",
"A.	c #BEDEF1",
"B.	c #B7DBEE",
"C.	c #BADDEF",
"D.	c #B8DAED",
"E.	c #B8DDF2",
"F.	c #B6D8EA",
"G.	c #B4DAEF",
"H.	c #BBDDEF",
"I.	c #056AB3",
"J.	c #0262AF",
"K.	c #0067B0",
"L.	c #026CB2",
"M.	c #0567B3",
"N.	c #0063B1",
"O.	c #026BB3",
"P.	c #BADAED",
"Q.	c #B8D9EE",
"R.	c #BDDCEC",
"S.	c #B7DAEC",
"T.	c #B7DBED",
"U.	c #B5D9EC",
"V.	c #BADBED",
"W.	c #0363B0",
"X.	c #0069B6",
"Y.	c #0263B1",
"Z.	c #056AB2",
"`.	c #0064B3",
" +	c #036AB5",
".+	c #0568B1",
"++	c #0065B6",
"@+	c #016AB5",
"#+	c #0465B1",
"$+	c #439FB3",
"%+	c #449FB3",
"&+	c #429DB1",
"*+	c #429BB2",
"=+	c #4099AD",
"-+	c #439EB6",
";+	c #429CB1",
">+	c #47A4B9",
",+	c #0263B3",
"'+	c #0267AF",
")+	c #046CB3",
"!+	c #0367AE",
"~+	c #0364B1",
"{+	c #0467B0",
"]+	c #066BB3",
"^+	c #056BB5",
"/+	c #046DB7",
"(+	c #0365B3",
"_+	c #4099AF",
":+	c #3D9CAF",
"<+	c #479FB7",
"[+	c #449DB2",
"}+	c #429CB2",
"|+	c #46A3B6",
"1+	c #459DB3",
"2+	c #0365B0",
"3+	c #0366B2",
"4+	c #0368B5",
"5+	c #056BB2",
"6+	c #0168AE",
"7+	c #0069B7",
"8+	c #B8DBEF",
"9+	c #B3D5E8",
"0+	c #B4D9EE",
"a+	c #B2D6E9",
"b+	c #B3DAEE",
"c+	c #B5D8EB",
"d+	c #B8DBEE",
"e+	c #B5D9EB",
"f+	c #036AAE",
"g+	c #056AB4",
"h+	c #0469AD",
"i+	c #0469B3",
"j+	c #0163B4",
"k+	c #B9DBED",
"l+	c #B8D8EA",
"m+	c #B8D9EC",
"n+	c #B3D9ED",
"o+	c #B9DCF0",
"p+	c #B3D6E9",
"q+	c #B6D9ED",
"r+	c #0369B2",
"s+	c #0564B1",
"t+	c #0465B3",
"u+	c #0467B1",
"v+	c #BCDBEB",
"w+	c #B3D7EB",
"x+	c #B8D8EB",
"y+	c #B7DCED",
"z+	c #B8DAEC",
"A+	c #B7D9EA",
"B+	c #0369B5",
"C+	c #0169B3",
"D+	c #026BB4",
"E+	c #0368B4",
"F+	c #0469B8",
"G+	c #0562AF",
"H+	c #0069B5",
"I+	c #0369B3",
"J+	c #B4D9ED",
"K+	c #AFD7EC",
"L+	c #BBDCEE",
"M+	c #B9DCEF",
"N+	c #BADCF0",
"O+	c #B4D7EA",
"P+	c #AED5EC",
"Q+	c #0162AC",
"R+	c #0061B1",
"S+	c #076BB3",
"T+	c #0563B2",
"U+	c #036AB1",
"V+	c #0364AD",
"W+	c #0466B2",
"X+	c #0669B4",
"Y+	c #0367B4",
"Z+	c #0467B5",
"`+	c #0363AF",
" @	c #046AB6",
".@	c #0163AE",
"+@	c #0362AC",
"@@	c #0067B5",
"#@	c #046BB3",
"$@	c #0564B2",
"%@	c #0067B2",
"&@	c #026AB3",
"*@	c #0063B4",
"=@	c #0067B3",
"-@	c #0164AF",
";@	c #0168B2",
">@	c #016BB2",
",@	c #0468B0",
"'@	c #0463B0",
")@	c #0469B5",
"!@	c #0167B6",
"~@	c #046AB2",
"{@	c #0064AF",
"]@	c #0667B0",
"^@	c #0669B2",
"/@	c #0367B0",
"(@	c #0363B2",
"_@	c #006AB2",
":@	c #002D80",
"<@	c #01307E",
"[@	c #002D7E",
"}@	c #002F80",
"|@	c #023180",
"1@	c #002E80",
"2@	c #002A7C",
"3@	c #00307A",
"4@	c #023282",
"5@	c #002E7B",
"6@	c #002E7D",
"7@	c #0461B2",
"8@	c #066AB4",
"9@	c #0265B3",
"0@	c #046AB0",
"a@	c #0666B2",
"b@	c #0468AF",
"c@	c #002666",
"d@	c #002466",
"e@	c #002567",
"f@	c #012565",
"g@	c #002868",
"h@	c #002565",
"i@	c #01266A",
"j@	c #012663",
"k@	c #012165",
"l@	c #00276D",
"m@	c #002766",
"n@	c #002665",
"o@	c #012563",
"p@	c #002767",
"q@	c #022668",
"r@	c #11000E",
"s@	c #060005",
"  . + @ # $ % & * = - ; > , ' ) ! ~ {   ",
"] ^ / ( _ : & < [ } | 1 2 3 4 5 $ 6 7 8 ",
"9 0 / a a b c c a d e f g g h c i / j k ",
"- l e c c m n i a e a a i o f f e d p q ",
"r s h a e c b i d a g t b t u a a v w x ",
"s % c b u e c f y z a a A c h a c a B / ",
"C D E a c b c g i g a b g n m c i F G H ",
"I J K L M N O L P Q R S T F U L T V W X ",
"Y Z `  ...D +.@.w #.: $.%.&.*.x =.-.;.>.",
"  ,.'.).!.~.{.].^./.(._.:.<.[.}.|.1.2.  ",
"3.4.s 5.6.l 7...5 7.8.9.0.a.b.$ c.d.e.f.",
"g.h.i.j.W k.l.d.m.` n.o.p.q.r.s.t.u.f.m.",
"v.w.x.y.z.# A.B.C.D.E.F.G.H.H I.( J.K.i.",
"d.=.L.M.N.O.P.Q.B.R.S.T.U.V.W.X.Y.Z.`. +",
".+Y ++@+w.#+$+%+&+*+=+-+;+>+,+'+)+!+~+{+",
"8.]+^+' /+(+_+:+<+[+}+|+1+;+2+3+4+.+V O.",
"5+j D 6+7+*.8+9+0+a+b+c+d+e+f+g+0.h+o.r.",
"g+~ i+] j+} k+l+m+n+m+o+p+q+' r+0 =.s+3+",
"l t+~+s u+5 U.v+w+x+y+z+A+p+2+i+B+C+3+D+",
"E+..F+G+H+I+J+K+S.L+M+N+O+P+Q+( I+N.R+S+",
"T+e.U+E+b.V+W+X+Y+Z+~ `+s. @.@+@{ b.x @@",
"#@r.$ / $@%@&@*@3+r+=@s 7 -@;@>@;@#.,@u+",
"k.'@l )@=@!@~@#+.+!+c.-.{@]@} ^@/@- (@_@",
"8 :@<@[@}@|@).).'.1@{.2@<@3@4@5@,.6@_.5 ",
"#.p C+$.7@w.8@9@/@j 8 0@a.Y+a@l.b@g.b.5+",
"c@d@e@f@g@h@i@h@F j@h@k@h@l@m@n@c@o@p@q@",
"A f m f c f a f r@a s@e h d c e o o a g "};
