/* XPM */
static char * floor_32_xpm[] = {
"32 32 785 2",
"  	c #CAB995",
". 	c #DECCA6",
"+ 	c #DCC9A4",
"@ 	c #E5D4AD",
"# 	c #E4CDA7",
"$ 	c #DCC8A3",
"% 	c #D7C29C",
"& 	c #C7B28F",
"* 	c #C5AF8B",
"= 	c #C8B490",
"- 	c #AB9274",
"; 	c #DBC8A1",
"> 	c #CFBA95",
", 	c #C9B590",
"' 	c #CDB994",
") 	c #D6C19B",
"! 	c #DAC49D",
"~ 	c #DBC7A0",
"{ 	c #DBCAA6",
"] 	c #DACCA8",
"^ 	c #D4B998",
"/ 	c #D19A80",
"( 	c #D6A488",
"_ 	c #E3CCA8",
": 	c #DAC5A0",
"< 	c #D8C39D",
"[ 	c #D4C09A",
"} 	c #CFB993",
"| 	c #D5BE99",
"1 	c #D6BE99",
"2 	c #DBC49D",
"3 	c #89715D",
"4 	c #D2BE98",
"5 	c #D8C8A0",
"6 	c #E7D7B0",
"7 	c #E9D9B2",
"8 	c #E9D8B1",
"9 	c #DECEAA",
"0 	c #CCBB98",
"a 	c #BDAC89",
"b 	c #C5A080",
"c 	c #C69F7F",
"d 	c #D5AC89",
"e 	c #EEDBB1",
"f 	c #D9C8A1",
"g 	c #D3C29C",
"h 	c #D6C69F",
"i 	c #CDBD98",
"j 	c #D4C49E",
"k 	c #E2D1AA",
"l 	c #EADAB2",
"m 	c #E1B392",
"n 	c #F3D9B4",
"o 	c #E8D6AE",
"p 	c #DDCDA7",
"q 	c #DBCBA5",
"r 	c #D6C59F",
"s 	c #D5C59F",
"t 	c #D5C49E",
"u 	c #CFBF99",
"v 	c #C1B18D",
"w 	c #685C4C",
"x 	c #CBB792",
"y 	c #D4C39D",
"z 	c #E0CFA9",
"A 	c #EADAB3",
"B 	c #D3B998",
"C 	c #D7B18F",
"D 	c #D7B08E",
"E 	c #D2A383",
"F 	c #D6A080",
"G 	c #E2CAA3",
"H 	c #DECDA5",
"I 	c #D1C19A",
"J 	c #D3C39C",
"K 	c #D2C29C",
"L 	c #D6C59E",
"M 	c #E1D0A7",
"N 	c #E8D8B0",
"O 	c #EEDDB6",
"P 	c #E8D8B1",
"Q 	c #DCCDA8",
"R 	c #D6AE8F",
"S 	c #E1C6A4",
"T 	c #D8BE9B",
"U 	c #E1D1AB",
"V 	c #ECDCB4",
"W 	c #D5C5A0",
"X 	c #D5C39D",
"Y 	c #C4B591",
"Z 	c #BBA987",
"` 	c #AC9879",
" .	c #615245",
"..	c #CAB490",
"+.	c #DACAA4",
"@.	c #D7C8A4",
"#.	c #CDB394",
"$.	c #DFB997",
"%.	c #DDCCA5",
"&.	c #D7C39D",
"*.	c #D9A583",
"=.	c #D3B490",
"-.	c #E9D8AF",
";.	c #CEBE98",
">.	c #CABA95",
",.	c #D0C09A",
"'.	c #D1C099",
").	c #D8C8A1",
"!.	c #DBCAA4",
"~.	c #E3D3AC",
"{.	c #F4DDB7",
"].	c #F8ECC5",
"^.	c #EAD5AD",
"/.	c #E7D0AB",
"(.	c #DFBF9C",
"_.	c #C6A787",
":.	c #E0C19C",
"<.	c #D1B893",
"[.	c #E2C69E",
"}.	c #CFBC97",
"|.	c #654F42",
"1.	c #CCA786",
"2.	c #DDC09B",
"3.	c #C8B08F",
"4.	c #C8B18F",
"5.	c #CCA98A",
"6.	c #EFC1A0",
"7.	c #F2CDA9",
"8.	c #E5D4AC",
"9.	c #E3D2AA",
"0.	c #DFC79F",
"a.	c #EBD4AB",
"b.	c #DBCAA2",
"c.	c #C8B895",
"d.	c #C09C7D",
"e.	c #D1AD8B",
"f.	c #CEB892",
"g.	c #D8C79E",
"h.	c #D3C29B",
"i.	c #DDCCA4",
"j.	c #EFDEB7",
"k.	c #EBDAB4",
"l.	c #F1E0BA",
"m.	c #EFDFB7",
"n.	c #CAB895",
"o.	c #E2D0A8",
"p.	c #EBDBB2",
"q.	c #D2C29B",
"r.	c #C2B28F",
"s.	c #655647",
"t.	c #D8B895",
"u.	c #DFAA8B",
"v.	c #E8BE9C",
"w.	c #F3DFB8",
"x.	c #F7EBC3",
"y.	c #E2CFAB",
"z.	c #DDC1A0",
"A.	c #D3B794",
"B.	c #D7C69F",
"C.	c #D5C59D",
"D.	c #C2A987",
"E.	c #E8D1A8",
"F.	c #D5C19A",
"G.	c #D7C69E",
"H.	c #C4B590",
"I.	c #CEBE99",
"J.	c #DECEA7",
"K.	c #EAD9B3",
"L.	c #E6D6AF",
"M.	c #EDDCB6",
"N.	c #D0C19C",
"O.	c #D8BA97",
"P.	c #F1D7AE",
"Q.	c #DFCEA7",
"R.	c #D5C59E",
"S.	c #BFB08C",
"T.	c #635849",
"U.	c #C5B18E",
"V.	c #BFAB8A",
"W.	c #E5AD8E",
"X.	c #DFB090",
"Y.	c #E5CAA6",
"Z.	c #E5D1AA",
"`.	c #E4D1AD",
" +	c #EAD1AC",
".+	c #EED5AD",
"++	c #E2D1A8",
"@+	c #D7C7A0",
"#+	c #C7AF8D",
"$+	c #E9D9B0",
"%+	c #C8B794",
"&+	c #D8B994",
"*+	c #C7B792",
"=+	c #CBBA95",
"-+	c #DDCBA3",
";+	c #DFCEA6",
">+	c #EBDBB4",
",+	c #E9D9B3",
"'+	c #D1C19C",
")+	c #DAC9A2",
"!+	c #EDDBB2",
"~+	c #DCCBA5",
"{+	c #DBCAA3",
"]+	c #BDAE8B",
"^+	c #635648",
"/+	c #C1987A",
"(+	c #D6AD8B",
"_+	c #EBC5A3",
":+	c #EDD5AF",
"<+	c #EBC4A1",
"[+	c #E6BC9C",
"}+	c #E6CDA9",
"|+	c #E1D0A9",
"1+	c #D8C7A0",
"2+	c #CDBE99",
"3+	c #C4B38F",
"4+	c #D5B08D",
"5+	c #DAC29C",
"6+	c #DABA95",
"7+	c #CBB48F",
"8+	c #DBC59D",
"9+	c #E6D6B0",
"0+	c #EBDAB3",
"a+	c #E4D4AE",
"b+	c #D1C29E",
"c+	c #DDCCA3",
"d+	c #DFCDA5",
"e+	c #C9BA94",
"f+	c #B4A583",
"g+	c #605043",
"h+	c #DDBA95",
"i+	c #EBC59F",
"j+	c #F3DDB6",
"k+	c #EADCB5",
"l+	c #DDCCA7",
"m+	c #F3DEB8",
"n+	c #EDD1AE",
"o+	c #DFB190",
"p+	c #D8C79F",
"q+	c #E2D1A9",
"r+	c #D3C39E",
"s+	c #DCCAA2",
"t+	c #E0CFA6",
"u+	c #E3D2AB",
"v+	c #EFDFB8",
"w+	c #EDDDB6",
"x+	c #E6D6B2",
"y+	c #E0D0AA",
"z+	c #E8D8AF",
"A+	c #DAC9A3",
"B+	c #D7C7A2",
"C+	c #BFAF8D",
"D+	c #D5C29C",
"E+	c #BFAB89",
"F+	c #6A5748",
"G+	c #E6D5AF",
"H+	c #E3D2AC",
"I+	c #F8EAC1",
"J+	c #F0E0B7",
"K+	c #D9C19A",
"L+	c #DEC09A",
"M+	c #D1C19B",
"N+	c #D1C09A",
"O+	c #D2C19B",
"P+	c #E0CFA8",
"Q+	c #CCBC9B",
"R+	c #E3CCA9",
"S+	c #EBDCB6",
"T+	c #DFCFAB",
"U+	c #E7D2AD",
"V+	c #ECDAB1",
"W+	c #D9C9A2",
"X+	c #D3C49F",
"Y+	c #C8B291",
"Z+	c #E8DBB3",
"`+	c #6E5D4E",
" @	c #DDC9A3",
".@	c #F0DFB7",
"+@	c #E8D7AF",
"@@	c #EEDDB5",
"#@	c #F0DFB9",
"$@	c #DFCFAA",
"%@	c #D9C09A",
"&@	c #D6C69E",
"*@	c #E0CFA7",
"=@	c #D4C39C",
"-@	c #DCCBA4",
";@	c #D5C49D",
">@	c #D0C099",
",@	c #DECEA8",
"'@	c #DDC5A3",
")@	c #E6C7A6",
"!@	c #ECD6AD",
"~@	c #DDCCA6",
"{@	c #EAD3AC",
"]@	c #EFDEB6",
"^@	c #D7C7A3",
"/@	c #EADAB4",
"(@	c #DCCCA4",
"_@	c #D1C19D",
":@	c #C5B794",
"<@	c #6A5C4D",
"[@	c #D8C39F",
"}@	c #D6C6A1",
"|@	c #D8C8A2",
"1@	c #E0D0A9",
"2@	c #D9C8A2",
"3@	c #CBB38F",
"4@	c #D5C49C",
"5@	c #CFBF98",
"6@	c #C3B38F",
"7@	c #D0BE99",
"8@	c #C9B994",
"9@	c #D3C39D",
"0@	c #E3D3AD",
"a@	c #F6E7BE",
"b@	c #F2E4BC",
"c@	c #E6D5AD",
"d@	c #E6D6AE",
"e@	c #E9D8B0",
"f@	c #DFCEA8",
"g@	c #D2C09E",
"h@	c #EACDA8",
"i@	c #615445",
"j@	c #D0BD9A",
"k@	c #C5AF8E",
"l@	c #D2B391",
"m@	c #D6C6A0",
"n@	c #CFBF9A",
"o@	c #E1D0AA",
"p@	c #C5AD8A",
"q@	c #DDCBA2",
"r@	c #C8B692",
"s@	c #DCC099",
"t@	c #CFBE98",
"u@	c #CDBD97",
"v@	c #ECDCB6",
"w@	c #CBBC99",
"x@	c #D0AD8E",
"y@	c #E7C7A2",
"z@	c #C9BA96",
"A@	c #5C5042",
"B@	c #D8C6A2",
"C@	c #E3CCA7",
"D@	c #DBB492",
"E@	c #D0A181",
"F@	c #C6AB89",
"G@	c #D8C7A1",
"H@	c #C1A685",
"I@	c #D7BD97",
"J@	c #D9C8A0",
"K@	c #CDBD99",
"L@	c #C6B390",
"M@	c #DEC59F",
"N@	c #D7C79F",
"O@	c #E2D2AB",
"P@	c #E4D3AB",
"Q@	c #DCCCA7",
"R@	c #D1B696",
"S@	c #F0DEB5",
"T@	c #E6CBA5",
"U@	c #EEDAB1",
"V@	c #E1D1AA",
"W@	c #CEBF9C",
"X@	c #D7C6A4",
"Y@	c #D8C7A4",
"Z@	c #CABA96",
"`@	c #D0A786",
" #	c #D3B996",
".#	c #CDBE9A",
"+#	c #C8BA98",
"@#	c #B6A283",
"##	c #CFB893",
"$#	c #C3B490",
"%#	c #C5B692",
"&#	c #C4AF8D",
"*#	c #C9B995",
"=#	c #C1B28F",
"-#	c #BCAE8C",
";#	c #B6A886",
">#	c #BFB08D",
",#	c #C5B693",
"'#	c #D6C7A3",
")#	c #D5C6A3",
"!#	c #D1C29F",
"~#	c #C5B796",
"{#	c #D4BB9A",
"]#	c #DDCDAA",
"^#	c #DBCCA8",
"/#	c #D2C3A0",
"(#	c #D5C6A4",
"_#	c #C9BB9B",
":#	c #5A4F41",
"<#	c #857461",
"[#	c #695F51",
"}#	c #62594C",
"|#	c #655C4F",
"1#	c #5D5447",
"2#	c #4F463A",
"3#	c #4F4538",
"4#	c #4E4437",
"5#	c #4A3C31",
"6#	c #564839",
"7#	c #564738",
"8#	c #534537",
"9#	c #54483A",
"0#	c #4F4234",
"a#	c #544537",
"b#	c #534639",
"c#	c #524436",
"d#	c #584739",
"e#	c #5E4E40",
"f#	c #635446",
"g#	c #5C4F41",
"h#	c #65584A",
"i#	c #695D50",
"j#	c #5F5448",
"k#	c #645145",
"l#	c #695A4B",
"m#	c #665547",
"n#	c #6C5B4C",
"o#	c #67594B",
"p#	c #5E5447",
"q#	c #4E4037",
"r#	c #DBCCA6",
"s#	c #D3C4A0",
"t#	c #C6B693",
"u#	c #C2B290",
"v#	c #C6B593",
"w#	c #D2C19D",
"x#	c #CDBD9A",
"y#	c #B19E80",
"z#	c #BB9578",
"A#	c #CFB892",
"B#	c #D2BC97",
"C#	c #CEB994",
"D#	c #D1BB96",
"E#	c #CFB994",
"F#	c #7F6A54",
"G#	c #A3896F",
"H#	c #E1CFA8",
"I#	c #DBC19B",
"J#	c #DAAE8E",
"K#	c #D9C5A1",
"L#	c #D7C4A0",
"M#	c #D7C39E",
"N#	c #C2AF8F",
"O#	c #CABA9E",
"P#	c #E5D6AF",
"Q#	c #E4CFA9",
"R#	c #DEC6A0",
"S#	c #D3BC97",
"T#	c #D3BF9B",
"U#	c #D0BC98",
"V#	c #CFBC99",
"W#	c #DFC7A7",
"X#	c #D2B999",
"Y#	c #DBA98A",
"Z#	c #DFB899",
"`#	c #DEBA99",
" $	c #DDC8A1",
".$	c #BBAA88",
"+$	c #DCBE98",
"@$	c #E1CBA2",
"#$	c #C2B28E",
"$$	c #564638",
"%$	c #D9CAAA",
"&$	c #E3D3AB",
"*$	c #DECDA6",
"=$	c #D7B392",
"-$	c #CEAF8E",
";$	c #DBC29F",
">$	c #DECFAC",
",$	c #F5E7BF",
"'$	c #E7D6AF",
")$	c #DDCDA6",
"!$	c #C7B492",
"~$	c #D7BD9B",
"{$	c #D9C4A0",
"]$	c #DCBB99",
"^$	c #EEDEB5",
"/$	c #E1D1AC",
"($	c #F6E5BC",
"_$	c #F2E4BB",
":$	c #F7E9C2",
"<$	c #DFC29D",
"[$	c #D0BF9B",
"}$	c #C5B390",
"|$	c #D3C19B",
"1$	c #CBBB96",
"2$	c #BFAF8B",
"3$	c #A7997A",
"4$	c #6B584A",
"5$	c #DAC49E",
"6$	c #E7D8B2",
"7$	c #E0C4A3",
"8$	c #E4B495",
"9$	c #E3AD8F",
"0$	c #EDD6B1",
"a$	c #E5D4AE",
"b$	c #E5D5AF",
"c$	c #DDCDA8",
"d$	c #D6C5A3",
"e$	c #EEDDB4",
"f$	c #E7D6AE",
"g$	c #F3E3BA",
"h$	c #F4E4BD",
"i$	c #E5D5AE",
"j$	c #D7C79E",
"k$	c #DFCCA4",
"l$	c #CAB893",
"m$	c #D2AB8A",
"n$	c #DBB893",
"o$	c #DEC39C",
"p$	c #CAB994",
"q$	c #675848",
"r$	c #DECAA3",
"s$	c #DFCFA8",
"t$	c #EBD7B1",
"u$	c #DCB291",
"v$	c #E6AC8E",
"w$	c #EFBD9C",
"x$	c #E7C3A0",
"y$	c #D6C3A2",
"z$	c #E5D0AB",
"A$	c #F2E3B9",
"B$	c #EFDEB8",
"C$	c #E4D4AD",
"D$	c #D4C49D",
"E$	c #DECDA7",
"F$	c #E4D3AC",
"G$	c #C9B893",
"H$	c #CABA94",
"I$	c #D0BF98",
"J$	c #CEBD97",
"K$	c #BCAA88",
"L$	c #C2AC8A",
"M$	c #E5D4AA",
"N$	c #DCCAA1",
"O$	c #D4C39B",
"P$	c #625445",
"Q$	c #D4BF99",
"R$	c #DCCCA5",
"S$	c #EBC7A2",
"T$	c #F0C3A1",
"U$	c #E8CCA9",
"V$	c #DFC9A5",
"W$	c #F1E0B7",
"X$	c #F5E5BE",
"Y$	c #EEDEB7",
"Z$	c #B49A7B",
"`$	c #D5B18D",
" %	c #D2C29A",
".%	c #C7A584",
"+%	c #E5CEA4",
"@%	c #BEAF8C",
"#%	c #5B4E40",
"$%	c #CDBA95",
"%%	c #D7C6A0",
"&%	c #DAC9A1",
"*%	c #DCCBA3",
"=%	c #E7D3AC",
"-%	c #E5C29F",
";%	c #EBDAB2",
">%	c #EBDBB5",
",%	c #E2D1AB",
"'%	c #E8D7B0",
")%	c #D2B894",
"!%	c #E7C69E",
"~%	c #E0CEA5",
"{%	c #CCBC97",
"]%	c #E6CEA5",
"^%	c #D2C19A",
"/%	c #C6B793",
"(%	c #554A3C",
"_%	c #D0BD98",
":%	c #C3B18E",
"<%	c #D3C29D",
"[%	c #C7A182",
"}%	c #E4C6A0",
"|%	c #ECDBB3",
"1%	c #E7D6AC",
"2%	c #BEAF8D",
"3%	c #514537",
"4%	c #CAB792",
"5%	c #B19A7B",
"6%	c #D7B590",
"7%	c #D8B691",
"8%	c #D0BF99",
"9%	c #CBBB95",
"0%	c #D9C69D",
"a%	c #DBBC97",
"b%	c #DDC39E",
"c%	c #C0B08C",
"d%	c #C3B48F",
"e%	c #C5B591",
"f%	c #C0AB89",
"g%	c #D8BE99",
"h%	c #B6A786",
"i%	c #4F4336",
"j%	c #C4A584",
"k%	c #C1A181",
"l%	c #D69E7E",
"m%	c #E1CDA4",
"n%	c #C9B390",
"o%	c #E5D2AA",
"p%	c #D9C79F",
"q%	c #DBBE9A",
"r%	c #D3BA97",
"s%	c #D8C7A2",
"t%	c #C5B593",
"u%	c #B9A98A",
"v%	c #D5BF99",
"w%	c #D5BC96",
"x%	c #D8BA95",
"y%	c #CB9C7C",
"z%	c #D49B7C",
"A%	c #C09F7F",
"B%	c #CAAC89",
"C%	c #BDAB88",
"D%	c #D9C69E",
"E%	c #B2A383",
"F%	c #4E362B",
"G%	c #DDC29C",
"H%	c #E6D3AA",
"I%	c #E2CFA6",
"J%	c #C6A987",
"K%	c #CEB08E",
"L%	c #D0B18F",
"M%	c #CEBE97",
"N%	c #D4BB96",
"O%	c #D4B995",
"P%	c #CBAD8F",
"Q%	c #DDAD8F",
"R%	c #F5E0B6",
"S%	c #DBCBA4",
"T%	c #DAC9A0",
"U%	c #DCC79E",
"V%	c #CDB08D",
"W%	c #CB9376",
"X%	c #DFB490",
"Y%	c #CCA382",
"Z%	c #D1AC89",
"`%	c #AC9275",
" &	c #655041",
".&	c #D6C19A",
"+&	c #D7C59F",
"@&	c #D8B494",
"#&	c #EECCA8",
"$&	c #D8BC98",
"%&	c #CEB592",
"&&	c #D6C49F",
"*&	c #E7DAB4",
"=&	c #F9E6BF",
"-&	c #F0DDB5",
";&	c #F5E6BD",
">&	c #CFBD9A",
",&	c #D4C49F",
"'&	c #BB9D7E",
")&	c #D69D7E",
"!&	c #D8A886",
"~&	c #E4BF99",
"{&	c #CFBC96",
"]&	c #685B4C",
"^&	c #D7C39C",
"/&	c #D9C8A3",
"(&	c #D4C09E",
"_&	c #E5B494",
":&	c #D8BE9C",
"<&	c #CDAA88",
"[&	c #CDBC96",
"}&	c #D1C199",
"|&	c #E3D1A9",
"1&	c #E8D1A9",
"2&	c #D0C09C",
"3&	c #D8C9A5",
"4&	c #E2D2AD",
"5&	c #D4C5A2",
"6&	c #DEB092",
"7&	c #E4CCA6",
"8&	c #CDA787",
"9&	c #D4B792",
"0&	c #D2987A",
"a&	c #D79B7B",
"b&	c #D6B994",
"c&	c #BCAD8B",
"d&	c #66594B",
"e&	c #D5C19B",
"f&	c #D9C9A3",
"g&	c #E5D5B0",
"h&	c #EDDEB7",
"i&	c #D8C4A0",
"j&	c #E3B292",
"k&	c #DBA689",
"l&	c #E1AB8B",
"m&	c #EAD4A9",
"n&	c #C0AF8D",
"o&	c #B79F80",
"p&	c #CAB390",
"q&	c #CCBB97",
"r&	c #C9B895",
"s&	c #DAB894",
"t&	c #DAB995",
"u&	c #DEBD9A",
"v&	c #DFB999",
"w&	c #DFBE9C",
"x&	c #E1BF99",
"y&	c #DDC09A",
"z&	c #CAAB89",
"A&	c #D2B08D",
"B&	c #D39E7F",
"C&	c #CB9A7C",
"D&	c #B59073",
"E&	c #695347",
"F&	c #C09E7E",
"G&	c #C9AF8D",
"H&	c #D9BC9C",
"I&	c #F2E3BB",
"J&	c #E4D6B0",
"K&	c #E5C6A2",
"L&	c #DCAE8E",
"M&	c #E7CDA5",
"N&	c #C0977A",
"O&	c #DFBC96",
"P&	c #D6AE8C",
"Q&	c #CAB38F",
"R&	c #CFAB8A",
"S&	c #BAA987",
"T&	c #B0A081",
"U&	c #C3A78A",
"V&	c #D6B897",
"W&	c #DCC39E",
"X&	c #C2AD8B",
"Y&	c #BBAC89",
"Z&	c #B49275",
"`&	c #C9B38F",
" *	c #CFB18E",
".*	c #C7A181",
"+*	c #B38C71",
"@*	c #605144",
"#*	c #C1A282",
"$*	c #C49377",
"%*	c #DFBD9B",
"&*	c #D7C6A2",
"**	c #C6A98A",
"=*	c #C7AA8D",
"-*	c #DCCAA4",
";*	c #C6B794",
">*	c #CABB98",
",*	c #C4B592",
"'*	c #BA997B",
")*	c #BAA281",
"!*	c #BD9476",
"~*	c #B68E72",
"{*	c #BC9C7D",
"]*	c #4F392E",
"^*	c #534337",
"/*	c #664F42",
"(*	c #6D594A",
"_*	c #6F5D4D",
":*	c #675A4C",
"<*	c #605243",
"[*	c #584A3C",
"}*	c #554638",
"|*	c #524537",
"1*	c #4B3A2E",
"2*	c #594C3E",
"3*	c #57493A",
"4*	c #534739",
"5*	c #4F4134",
"6*	c #4F382F",
"7*	c #725644",
"8*	c #635444",
"9*	c #665A4B",
"0*	c #5A5145",
"a*	c #5A4D41",
"b*	c #624A3F",
"c*	c #705449",
"d*	c #675749",
"e*	c #5A4C3E",
"f*	c #55493B",
"g*	c #5B4334",
"h*	c #54382B",
"i*	c #52372C",
"j*	c #4E352B",
"  . + @ # $ % & * = - ; > , ' ) ! ~ { ] ^ / ( _ : < [ } | 1 2 3 ",
"4 5 6 7 8 9 0 a b c d e f g h i j k 7 l   m n o p q r s t u v w ",
"x y z A 7 B C D E F G H I J K L M N O P Q R S T U V W X Y Z `  .",
"..u H +.@.#.$.%.&.*.=.-.K ;.>.,.'.,.).!.~.{.].^./.(._.:.<.[.}.|.",
"1.2.3.4.5.6.7.8.9.0.a.b.c.d.e.f.g.h.i.k j.k.l.m.q n.o.p.t q.r.s.",
"> t.u.v.w.x.y.z.A.B.y C.D.E.B.F.G.H.I.J.K.L.M.+.N.O.P.Q.q.R.S.T.",
"U.V.W.X.Y.Z.`. +.+++@+u #+$+%+&+*+=+-+;+6 >+,+'+j )+!+~+{+h ]+^+",
"/+(+_+:+<+[+}+|+1+;.2+3+4+5+% 6+7+8+G.5 9+0+a+b+c+d+Q.~+K e+f+g+",
"h+i+j+k+l+m+n+o+)+Q.-+p+i.q+r+h.s+-+t+u+v+w+x+y+z+A+).B+C+D+E+F+",
"o.+.G+H+I+J+v+K+L+M+i N+).@+O+c+C.f P+Q+R+S+T+U+V+W+X+Y+Z+;+Y `+",
" @u+.@+@@@7 #@$@%@&@*@R.=@-@;@>@L W+,@'@)@!@~@{@]@0+^@/@(@_@:@<@",
"[@}@|@h )+1@k 2@3@4@u 5@6@7@8@,.,.9@0@a@b@u+c@d@e@f@g@h@f 9@+.i@",
"j@k@l@m@n@p o@).p@q@5@L r@s@t@4@t@u@J.O v@a++@1@k w@x@y@-+t z@A@",
"B@C@D@E@F@W+|@G@H@I@J@K@L@M@L G.q.B.N@{+O@w+P@G+Q@R@S@T@U@V@W@A@",
"X@Y@Z@`@ #'+.#+#@###$#]+%#&#*#=#]+-#;#>#,#'#)#!#~#{#]#^#/#(#_#:#",
"<#[#}#|#1#2#3#4#5#6#7#8#9#0#a#6#b#c#d#e#f#g#h#i#j#k#l#m#n#o#p#q#",
"r#s#t#u#v#w#x#y#z#% A#B#C#D#E#F#G#H#I#J#K#L#M#N#O#P#Q#R#S#T#U#V#",
"W#X#Y#Z#`# $.$+$@$N+p+J R.q.#$$$%$&$*$G@=$-$;$>$,$'$)$p !$~${$]$",
"^$/$($_$:$<$[$++N+}$|$1$=#2$3$4$5${+u+6$7$8$9$0$a$b$c$d$$@e$v+f$",
").H+g$h$i$L j$h.=@k$l$m$n$o$p$q$r$s$p 8 t$u$v$w$x$6 y$z$A$B$C$D$",
"E$F$8 0@2@G$H$I$J$K$L$M$N$O$>#P$Q$W+B+}@R$@+S$T$U$V$6$W$j.X$K.J.",
"Y$b$p )$B.Z$`$ %>..%+%=@I J @%#%$%%%L &%*%B.F$=%-%F$b.;%>%,%P >+",
"'%i$-@@+N+)%!%~%{%p@]%^%5 y /%(%_%I$>.:%'.B.1+<%[%}%%%|+|%*$O@'%",
")$|@).R.O+1+&@'.>#@.1%;.h.M+2%3%4%*+5%6%7%;@8%9%0%a%b%R$Q.R.y ).",
"D$|+;+u *+c%d%e%f%g%M+u@B.t@h%i%j%k%l%m%n%o%q.G.4@p%q%r%s%D$h ^%",
"1++.t%u%v%w%x%.%y%z%A%B%C%D%E%F%G%H%I%J@J%K%L%;@M%R.@+N%O%u I J ",
"^@P%Q%R%{+S%5 T%U%V%W%X%Y%Z%`% &.&i.R$,.+&@&#&M ;@t q.D$$&5$%&&&",
"*&=&-&;&r#>&,&1+u '&)&!&A%~&{&]&^&Q./&r+(&_&:&<&[&}&q.N+L *@|&1&",
"2&3&T+4&5&6&7&o.>.8&9&0&a&b&c&d&e&f&g&h&i&j&k&l&m&=@y n&o&p&q&r&",
"s&t&u&v&w&x&y&;@u@|$z&A&B&C&D&E&F&G&H&I&J&K&L&M&J@K n@N&O&P&Q&R&",
"S&T&U&v&V&W&X&H$Y&@%Z&`& *.*+*@*#*$*%*&*u%**=*-*;*>*,*'*)*!*~*{*",
"]*^*/*(*_*:*<*[*}*|*1*2*3*4*5*6*7*8*9*0*a*b*c*d*g#e*f*$$g*h*i*j*"};
