/* XPM */
static char * Racoon_up_xpm[] = {
"25 32 178 2",
"  	c None",
". 	c #2E110A",
"+ 	c #2B0F08",
"@ 	c #1F0400",
"# 	c #2A0E06",
"$ 	c #30130C",
"% 	c #493329",
"& 	c #4A342A",
"* 	c #3C251C",
"= 	c #2F1A12",
"- 	c #453026",
"; 	c #4A352B",
"> 	c #321811",
", 	c #523D32",
"' 	c #503B30",
") 	c #3F2A20",
"! 	c #331E16",
"~ 	c #4B372C",
"{ 	c #4D372D",
"] 	c #2E130C",
"^ 	c #432D24",
"/ 	c #4D382D",
"( 	c #352017",
"_ 	c #39241B",
": 	c #4D382E",
"< 	c #3E281F",
"[ 	c #28110A",
"} 	c #533E33",
"| 	c #4E382D",
"1 	c #3C271E",
"2 	c #321C15",
"3 	c #473228",
"4 	c #4B362B",
"5 	c #321C14",
"6 	c #321A12",
"7 	c #432E24",
"8 	c #3B261D",
"9 	c #311B14",
"0 	c #3D281F",
"a 	c #4F3A2F",
"b 	c #513C31",
"c 	c #3D281E",
"d 	c #311B15",
"e 	c #442F25",
"f 	c #3B241B",
"g 	c #3D261D",
"h 	c #3C261E",
"i 	c #493328",
"j 	c #321D16",
"k 	c #37211A",
"l 	c #4C372C",
"m 	c #483228",
"n 	c #29120A",
"o 	c #31160F",
"p 	c #29120B",
"q 	c #3E291F",
"r 	c #503C31",
"s 	c #483328",
"t 	c #341F18",
"u 	c #331D16",
"v 	c #412C22",
"w 	c #301A14",
"x 	c #260B04",
"y 	c #30140D",
"z 	c #331912",
"A 	c #462F25",
"B 	c #4F392F",
"C 	c #321710",
"D 	c #422D24",
"E 	c #4E392E",
"F 	c #3B261C",
"G 	c #362019",
"H 	c #3D261E",
"I 	c #412A21",
"J 	c #4B342A",
"K 	c #4C352B",
"L 	c #3A251C",
"M 	c #3C261D",
"N 	c #38231B",
"O 	c #402B22",
"P 	c #473329",
"Q 	c #422D23",
"R 	c #442E25",
"S 	c #49332A",
"T 	c #402920",
"U 	c #250D06",
"V 	c #2B140C",
"W 	c #3E2920",
"X 	c #4E392F",
"Y 	c #3C251D",
"Z 	c #3C241C",
"` 	c #30150E",
" .	c #341C14",
"..	c #473126",
"+.	c #463026",
"@.	c #301B14",
"#.	c #4E382E",
"$.	c #31170F",
"%.	c #311C14",
"&.	c #4B372D",
"*.	c #422E24",
"=.	c #372019",
"-.	c #38231A",
";.	c #49352A",
">.	c #49352B",
",.	c #2D180F",
"'.	c #240B03",
").	c #503B31",
"!.	c #3C281E",
"~.	c #453126",
"{.	c #432E25",
"].	c #331E15",
"^.	c #321E15",
"/.	c #4D392E",
"(.	c #4C372D",
"_.	c #432F25",
":.	c #200500",
"<.	c #463228",
"[.	c #3E2A21",
"}.	c #352119",
"|.	c #493429",
"1.	c #412D23",
"2.	c #3E2A20",
"3.	c #352018",
"4.	c #2E1711",
"5.	c #321E16",
"6.	c #422E25",
"7.	c #453127",
"8.	c #2E180F",
"9.	c #341F17",
"0.	c #382219",
"a.	c #301B13",
"b.	c #230A03",
"c.	c #402C22",
"d.	c #2B150D",
"e.	c #39241A",
"f.	c #3C271D",
"g.	c #382119",
"h.	c #412D24",
"i.	c #463128",
"j.	c #443026",
"k.	c #3E271F",
"l.	c #331F16",
"m.	c #442F26",
"n.	c #412C23",
"o.	c #453027",
"p.	c #230902",
"q.	c #3F2A21",
"r.	c #281109",
"s.	c #3D2820",
"t.	c #240B04",
"u.	c #270F07",
"v.	c #3A251D",
"w.	c #37221A",
"x.	c #260E06",
"y.	c #2C160F",
"z.	c #200400",
"A.	c #220802",
"B.	c #2D170F",
"C.	c #210600",
"D.	c #301A13",
"E.	c #2E1911",
"F.	c #271008",
"G.	c #250B05",
"H.	c #2C150E",
"I.	c #281008",
"J.	c #270E08",
"K.	c #2C150F",
"L.	c #3E2921",
"M.	c #2C160E",
"N.	c #230903",
"O.	c #260C06",
"P.	c #220701",
"Q.	c #331D17",
"R.	c #270F08",
"S.	c #220801",
"T.	c #29100A",
"U.	c #230802",
"                                                  ",
"                                                  ",
"          . + @ # .                               ",
"      $ % & * = - ; >                             ",
"      % , ' ) ! ~ , { ]                           ",
"    ^ , , / ( _ : , ' < [                         ",
"    ^ } | 1 2 3 , , 4 ! 5 6                       ",
"    7 | 8 9 0 a , b c d e f                       ",
"    g h d 1 ' , , i j k l m n       o o           ",
"    p _ q r , ' s t u e , v w x y z A B C         ",
"      D E a 4 F d u e , 4 G 2 C H I J K C         ",
"        L M N 9 O P , b Q w q R S l T J C         ",
"          U V 7 b , ' W u M / X Y } / Z `         ",
"           .3 g ..+.8 @.8 #., E * , , E $.        ",
"          %.&.*.=.u j -.;., ' >.= : b ;.,.        ",
"        '.P ).: ! !.~.E r X {.].^./.(./._.:.      ",
"        '.<.E : [.}.4 |.1.2.3.4.5.>.; P 6.:.      ",
"        '.7.P P <.1.8.9.2 2 0.q a.<.<.<.6.:.      ",
"        b.c.<.<.<.7.d.e.f.f.; g.7.<.<.<.*.:.      ",
"        b.h.i.7.7.j.*.k.X E l.m.j.7.<.<.[.:.      ",
"        b.*._._.n.e O O O O O O n.o.<.<.O :.      ",
"        p.q.n.n.O 7 O O O O O O n.j.<.*.0 :.      ",
"        p.W O O O O O O O O O O O O n.O 1 :.      ",
"          r.O O O O q.s.O O 0 O O O O q.t.        ",
"          u.v.O O O 0 r.w.w.x.q.O O O N p.        ",
"            y.O O O 0 :.z.z.A.q.O O O u.          ",
"            B.O O q.d.[   C.D.E.O O O F.          ",
"            n k k G p.G.  C.H.I.O O q.F.          ",
"              J.K.p.C.    C.G.u.W L.M.            ",
"              N.O.P.          t.u Q.R.            ",
"                              S.T.T.N.            ",
"                              P.O.O.U.            "};
