/* XPM */
static char * Racoon_right_xpm[] = {
"32 23 188 2",
"  	c None",
". 	c #2F140D",
"+ 	c #2E130C",
"@ 	c #3C2A26",
"# 	c #3F2820",
"$ 	c #503B30",
"% 	c #4D382D",
"& 	c #362118",
"* 	c #2E1910",
"= 	c #38231A",
"- 	c #867C79",
"; 	c #B3A9A6",
"> 	c #7E7471",
", 	c #513C31",
"' 	c #4E392E",
") 	c #352018",
"! 	c #4B362C",
"~ 	c #351D15",
"{ 	c #675A56",
"] 	c #9D938F",
"^ 	c #493A36",
"/ 	c #240B05",
"( 	c #422B22",
"_ 	c #523D32",
": 	c #3A251B",
"< 	c #352017",
"[ 	c #49352A",
"} 	c #453026",
"| 	c #3A241C",
"1 	c #7E726E",
"2 	c #61534E",
"3 	c #33170E",
"4 	c #402A21",
"5 	c #432E25",
"6 	c #2C0F08",
"7 	c #2C0E08",
"8 	c #260D06",
"9 	c #473328",
"0 	c #3A231C",
"a 	c #422D24",
"b 	c #463026",
"c 	c #362119",
"d 	c #452F25",
"e 	c #3B231B",
"f 	c #351F19",
"g 	c #361F18",
"h 	c #442E25",
"i 	c #4F3A2F",
"j 	c #321810",
"k 	c #280F08",
"l 	c #442E24",
"m 	c #372219",
"n 	c #341E16",
"o 	c #493329",
"p 	c #311B14",
"q 	c #483228",
"r 	c #453027",
"s 	c #240B04",
"t 	c #382019",
"u 	c #4B352B",
"v 	c #503A2F",
"w 	c #9D908A",
"x 	c #998E89",
"y 	c #331912",
"z 	c #260E06",
"A 	c #452F26",
"B 	c #301A12",
"C 	c #39231A",
"D 	c #4A342A",
"E 	c #331D14",
"F 	c #351F16",
"G 	c #4C372D",
"H 	c #3A251C",
"I 	c #220801",
"J 	c #2E110A",
"K 	c #3E271F",
"L 	c #31160F",
"M 	c #2C160E",
"N 	c #382219",
"O 	c #402B21",
"P 	c #301912",
"Q 	c #432D23",
"R 	c #2F1913",
"S 	c #2D120B",
"T 	c #2E120B",
"U 	c #49342A",
"V 	c #4B362B",
"W 	c #422C22",
"X 	c #473229",
"Y 	c #39241E",
"Z 	c #877877",
"` 	c #2F1812",
" .	c #200500",
"..	c #1F0400",
"+.	c #301911",
"@.	c #38241C",
"#.	c #4C382D",
"$.	c #4A362B",
"%.	c #4D392E",
"&.	c #4B372C",
"*.	c #442F25",
"=.	c #463127",
"-.	c #503B31",
";.	c #3C261F",
">.	c #301A14",
",.	c #260A01",
"'.	c #39241C",
").	c #685D58",
"!.	c #2F1911",
"~.	c #2E1810",
"{.	c #4A352B",
"].	c #473228",
"^.	c #473329",
"/.	c #463228",
"(.	c #36211A",
"_.	c #5E4F49",
":.	c #CCC3BF",
"<.	c #443835",
"[.	c #402B22",
"}.	c #4D382E",
"|.	c #48342A",
"1.	c #483329",
"2.	c #3F2A21",
"3.	c #422E24",
"4.	c #443026",
"5.	c #3A261E",
"6.	c #6C5F59",
"7.	c #CBC2BE",
"8.	c #F6F4F4",
"9.	c #3C3231",
"0.	c #2D170F",
"a.	c #412D24",
"b.	c #3E2920",
"c.	c #2A140C",
"d.	c #2C150F",
"e.	c #301A13",
"f.	c #3C271E",
"g.	c #6B5C57",
"h.	c #A49995",
"i.	c #8D8685",
"j.	c #453127",
"k.	c #37231B",
"l.	c #442F26",
"m.	c #2D1810",
"n.	c #412C22",
"o.	c #4C372C",
"p.	c #29130B",
"q.	c #2A130B",
"r.	c #412B22",
"s.	c #29120A",
"t.	c #473127",
"u.	c #432D24",
"v.	c #422D23",
"w.	c #311C14",
"x.	c #412C23",
"y.	c #3B261D",
"z.	c #432E24",
"A.	c #210600",
"B.	c #270F07",
"C.	c #271008",
"D.	c #29100A",
"E.	c #341D16",
"F.	c #2B140D",
"G.	c #422C23",
"H.	c #2F1A12",
"I.	c #2B130C",
"J.	c #3D281F",
"K.	c #260F07",
"L.	c #29110A",
"M.	c #230902",
"N.	c #38221A",
"O.	c #321D14",
"P.	c #351E17",
"Q.	c #2D1610",
"R.	c #230A03",
"S.	c #220701",
"T.	c #2B130D",
"U.	c #2B140E",
"V.	c #3C271F",
"W.	c #220802",
"X.	c #28100A",
"Y.	c #280F09",
"Z.	c #2A110B",
"`.	c #260C06",
" +	c #240A04",
".+	c #2C150E",
"++	c #2E1711",
"@+	c #250A04",
"                                                                ",
"        . . +                             @                     ",
"      # $ % & * =                       - ; >                   ",
"    & , ' ) = ! $ ~                     - { ] ^                 ",
"  / ( _ : < [ , } |                     1 2 3 4 5 6 7           ",
"  8 ( 9 0 a , b c d e                   f g h $ , $ i j         ",
"  k l m n o l p q , r s                 t u , , , v w x y       ",
"  z A B C D E F G H m I               J o D , , , , ' K L       ",
"    M s N O P Q < R m S T a U ! V ! A W u $ , , G X Y Z `       ",
"         ...F +.p = @.$ G #.$.%.&., i *.=.$., -.$.;.>.,.'.).    ",
"                !.~.$ {.! $ , #.U , $ D ].*.^./.(.>.>.'._.:.<.  ",
"                  [.[ &.$., }.i , |.^.1.O 2.3.4.R >.5.6.7.8.9.  ",
"                0.a./././.^././.9 /././.a b.b.c.d.e.f.g.h.i.    ",
"                ~.2.j./././.k././././././.l.*.!.                ",
"                m.n.d o.j.u p././.j.q.b.h O h f.                ",
"                0.].h r.b f.c 4./.*.s.b.t.} 2.u.                ",
"                0.*.v.[.v.w.H 2.x.y.n = *.A O z.M               ",
"              A.f.b.b.b.b.A.z B.C.D.E.F.G.[.h b.H.              ",
"              I.b.b.b.J.K.L.    M.N.| P s.J.b.b.2.A.            ",
"              F.g y.O.B.P.Q.R.  S.T.U.    s O.V.g W.            ",
"            S.X.Y.      Z.`. +    `.A.        .+++Y.S.          ",
"              `.`.S.                            @+`.S.          ",
"                                                                "};
