/* XPM */
static char * Racoon_down_xpm[] = {
"25 32 217 2",
"  	c None",
". 	c #270E07",
"+ 	c #311710",
"@ 	c #3A231B",
"# 	c #412B22",
"$ 	c #422C22",
"% 	c #39241B",
"& 	c #422D23",
"* 	c #3F2820",
"= 	c #2F150D",
"- 	c #483328",
"; 	c #4F3B30",
"> 	c #4E392E",
", 	c #38221A",
"' 	c #311911",
") 	c #2C160F",
"! 	c #321C15",
"~ 	c #3C281E",
"{ 	c #463127",
"] 	c #4D382D",
"^ 	c #311B12",
"/ 	c #483227",
"( 	c #463126",
"_ 	c #331E16",
": 	c #351F17",
"< 	c #3F2A21",
"[ 	c #2E170E",
"} 	c #402B21",
"| 	c #412C22",
"1 	c #4B362B",
"2 	c #260E07",
"3 	c #2A130B",
"4 	c #321D15",
"5 	c #372219",
"6 	c #331F17",
"7 	c #382017",
"8 	c #4C372C",
"9 	c #402C23",
"0 	c #2C150F",
"a 	c #301B13",
"b 	c #210601",
"c 	c #A09B9A",
"d 	c #BEB6B3",
"e 	c #240000",
"f 	c #3C241C",
"g 	c #452E25",
"h 	c #442E25",
"i 	c #432D24",
"j 	c #30130C",
"k 	c #9B918E",
"l 	c #D2CECD",
"m 	c #908683",
"n 	c #776963",
"o 	c #BFB5B1",
"p 	c #847976",
"q 	c #4A3329",
"r 	c #513B31",
"s 	c #503A30",
"t 	c #655854",
"u 	c #B9AFAC",
"v 	c #897C78",
"w 	c #C4BAB6",
"x 	c #897D79",
"y 	c #665651",
"z 	c #37190E",
"A 	c #7C6F6A",
"B 	c #31130A",
"C 	c #392019",
"D 	c #381F18",
"E 	c #6A5D58",
"F 	c #412A23",
"G 	c #381A0D",
"H 	c #BAADA8",
"I 	c #867975",
"J 	c #62534E",
"K 	c #331911",
"L 	c #3C251D",
"M 	c #523D32",
"N 	c #473128",
"O 	c #351B14",
"P 	c #331307",
"Q 	c #B6A9A3",
"R 	c #655753",
"S 	c #48342F",
"T 	c #3D261E",
"U 	c #513C31",
"V 	c #513C32",
"W 	c #49332A",
"X 	c #371C15",
"Y 	c #6F615D",
"Z 	c #3D251D",
"` 	c #371E16",
" .	c #4F392D",
"..	c #AA9C97",
"+.	c #998E89",
"@.	c #4F3A2F",
"#.	c #483329",
"$.	c #5A4C45",
"%.	c #B9AEA9",
"&.	c #5B483F",
"*.	c #402921",
"=.	c #4D382E",
"-.	c #31160F",
";.	c #422A22",
">.	c #432C22",
",.	c #452E24",
"'.	c #473329",
").	c #4C382D",
"!.	c #361F15",
"~.	c #4E392F",
"{.	c #3E281F",
"].	c #3E271F",
"^.	c #2E130C",
"/.	c #402A21",
"(.	c #49342A",
"_.	c #685856",
":.	c #2D160F",
"<.	c #412C23",
"[.	c #422D25",
"}.	c #321C16",
"|.	c #5A4A48",
"1.	c #3F2924",
"2.	c #463128",
"3.	c #351D15",
"4.	c #3D271E",
"5.	c #220802",
"6.	c #301B14",
"7.	c #2E1710",
"8.	c #605351",
"9.	c #301A14",
"0.	c #544644",
"a.	c #35211D",
"b.	c #29130B",
"c.	c #331F16",
"d.	c #210600",
"e.	c #271009",
"f.	c #341E17",
"g.	c #4D372C",
"h.	c #4B362C",
"i.	c #361F16",
"j.	c #331E17",
"k.	c #2E1812",
"l.	c #210500",
"m.	c #230802",
"n.	c #2F1913",
"o.	c #3C281F",
"p.	c #412D24",
"q.	c #827671",
"r.	c #A89D98",
"s.	c #857973",
"t.	c #A69B96",
"u.	c #3F291E",
"v.	c #39231C",
"w.	c #250D06",
"x.	c #351F16",
"y.	c #7A6E69",
"z.	c #D4CCC8",
"A.	c #DDDCDC",
"B.	c #C6C0BE",
"C.	c #DCD7D5",
"D.	c #A29893",
"E.	c #443129",
"F.	c #392119",
"G.	c #462F26",
"H.	c #372119",
"I.	c #230902",
"J.	c #412A21",
"K.	c #442E24",
"L.	c #766D6A",
"M.	c #F7F5F4",
"N.	c #595353",
"O.	c #000000",
"P.	c #F5F4F4",
"Q.	c #B4AEAC",
"R.	c #4E3A31",
"S.	c #4A362B",
"T.	c #341B13",
"U.	c #260B04",
"V.	c #493229",
"W.	c #463027",
"X.	c #473228",
"Y.	c #979291",
"Z.	c #CAC7C6",
"`.	c #979493",
" +	c #C8C5C4",
".+	c #3A2011",
"++	c #503B30",
"@+	c #4E382D",
"#+	c #260C05",
"$+	c #2B0F08",
"%+	c #422C23",
"&+	c #4C352B",
"*+	c #31190E",
"=+	c #130000",
"-+	c #170000",
";+	c #1E0000",
">+	c #4C352C",
",+	c #452F26",
"'+	c #473127",
")+	c #230A03",
"!+	c #38231B",
"~+	c #210701",
"{+	c #270F08",
"]+	c #3E2920",
"^+	c #402B22",
"/+	c #280E06",
"(+	c #230903",
"_+	c #220701",
":+	c #270E08",
"<+	c #341F17",
"[+	c #2C150E",
"}+	c #362019",
"|+	c #331D16",
"1+	c #281009",
"2+	c #311A14",
"3+	c #250B05",
"4+	c #260C06",
"                          . + @                   ",
"                        # $ % & *                 ",
"                      = - ; > , '                 ",
"                      ) ! ~ { ] ^                 ",
"                      / ( _ : <                   ",
"                    [ } | 1 % 2                   ",
"                    3 4 ! 5 6                     ",
"                    7 8 ] 9                       ",
"                      0 a b                       ",
"            c d e   f g h i   j k l               ",
"            m n o p q r r s t u v w               ",
"            x y z A B C C D E F G H               ",
"            I J K L M M M M N O P Q               ",
"            R S T U M M > V M W X Y               ",
"            Z `  ...+.@.#.$.%.&.*.=.              ",
"          -.;.W M >.,.'.).] !.U ~.{.].            ",
"          ^./.(.C _.:.<.[.}.|.1.2.3.4.            ",
"          5.5 6.7.8.7.9.9.9.0.a.}.b.c.            ",
"          d.e.9.9.9.f.g.h.i.j.9.9.k.l.            ",
"          d.m.n.o.p.q.r.s.t.u.p.v.w.d.            ",
"          5.i : x.y.z.A.B.C.D.E.F.G.H.            ",
"          I.J.q K.L.M.N.O.P.Q.R.S.T.H.            ",
"            U.V.W.X.Y.Z.`. +.+++@+#+              ",
"            $+%+&+&+*+=+-+;+>+,+'+)+              ",
"              -.'+q !+~+  {+]+^+a                 ",
"              /+i < (+_+  :+<+^+a                 ",
"                [+}+. _+    :.|+                  ",
"                1+2+2+      3+:+                  ",
"                I.4+4+                            ",
"                                                  ",
"                                                  ",
"                                                  "};
