/* XPM */
static char * Racoon_32_xpm[] = {
"48 32 52 1",
" 	c None",
".	c #6D605C",
"+	c #6E615D",
"@	c #5F514D",
"#	c #6D615C",
"$	c #60534F",
"%	c #5C504C",
"&	c #5D504C",
"*	c #61544F",
"=	c #594E4B",
"-	c #534845",
";	c #4F4340",
">	c #584E4B",
",	c #524744",
"'	c #432E24",
")	c #422D24",
"!	c #625754",
"~	c #49342A",
"{	c #453027",
"]	c #625652",
"^	c #483429",
"/	c #453026",
"(	c #4A352B",
"_	c #463127",
":	c #3B251D",
"<	c #39241C",
"[	c #39241B",
"}	c #3A251D",
"|	c #3B261E",
"1	c #3B261D",
"2	c #412C23",
"3	c #453127",
"4	c #615753",
"5	c #443026",
"6	c #473228",
"7	c #5F534F",
"8	c #483329",
"9	c #39231B",
"0	c #37221A",
"a	c #38231A",
"b	c #432F25",
"c	c #442F25",
"d	c #432E25",
"e	c #422E24",
"f	c #3F2B22",
"g	c #3E2A21",
"h	c #402C22",
"i	c #412D24",
"j	c #341E17",
"k	c #362119",
"l	c #352018",
"m	c #351F18",
"                                                ",
"                                      .  +@  #  ",
"                                     $%  &$  %* ",
"                                     =-  ;>  ,= ",
"                                                ",
"                                       '       )",
"                                    !~{ ]^/ !(_ ",
"                                     :<  [}  |1 ",
"                                                ",
"                                    2       2   ",
"                                     3~4 567 58!",
"                                     [<  90  a[ ",
"                                                ",
"                                      b  c   d  ",
"                                     e2  fg  hi ",
"                                     j   kl  km ",
"                                                ",
"                                                ",
"                                                ",
"                                                ",
"                                                ",
"                                                ",
"                                                ",
"                                                ",
"                                                ",
"                                                ",
"                                                ",
"                                                ",
"                                                ",
"                                                ",
"                                                ",
"                                                "};
