/* XPM */
static char * Racoon_left_xpm[] = {
"32 31 235 2",
"  	c None",
". 	c #30140D",
"+ 	c #463027",
"@ 	c #463127",
"# 	c #341D14",
"$ 	c #4B362C",
"% 	c #4A362B",
"& 	c #3A251B",
"* 	c #321C15",
"= 	c #2B140D",
"- 	c #3E271F",
"; 	c #432E24",
"> 	c #341E16",
", 	c #463227",
"' 	c #4A352A",
") 	c #3C261D",
"! 	c #4A3B38",
"~ 	c #2A130C",
"{ 	c #321C16",
"] 	c #412C22",
"^ 	c #503B30",
"/ 	c #523D32",
"( 	c #4F3A2F",
"_ 	c #422D23",
": 	c #331E15",
"< 	c #978D89",
"[ 	c #CBC0BD",
"} 	c #4F403D",
"| 	c #402C22",
"1 	c #533E33",
"2 	c #4F3A30",
"3 	c #463228",
"4 	c #321C14",
"5 	c #301912",
"6 	c #ABA19D",
"7 	c #6C5F5B",
"8 	c #AEA3A0",
"9 	c #382018",
"0 	c #463026",
"a 	c #3C281E",
"b 	c #341F16",
"c 	c #3C261C",
"d 	c #331911",
"e 	c #3C241C",
"f 	c #412A22",
"g 	c #3D251C",
"h 	c #3C231C",
"i 	c #A39690",
"j 	c #4B3B37",
"k 	c #2E1811",
"l 	c #331D16",
"m 	c #3E291F",
"n 	c #4C362C",
"o 	c #4E372C",
"p 	c #4D362C",
"q 	c #3D251D",
"r 	c #49332A",
"s 	c #4A352B",
"t 	c #513C31",
"u 	c #341A13",
"v 	c #61534F",
"w 	c #39231E",
"x 	c #443026",
"y 	c #4E382D",
"z 	c #4C352B",
"A 	c #2F130C",
"B 	c #655752",
"C 	c #776861",
"D 	c #503A2F",
"E 	c #331811",
"F 	c #3A251C",
"G 	c #4D382E",
"H 	c #4D372D",
"I 	c #493329",
"J 	c #493229",
"K 	c #40291F",
"L 	c #200500",
"M 	c #351B14",
"N 	c #776A65",
"O 	c #8A7C75",
"P 	c #4F382D",
"Q 	c #442C24",
"R 	c #281108",
"S 	c #311A13",
"T 	c #301A12",
"U 	c #311B13",
"V 	c #2B1008",
"W 	c #321811",
"X 	c #503D39",
"Y 	c #422D26",
"Z 	c #4F392E",
"` 	c #4A3329",
" .	c #341A12",
"..	c #361D16",
"+.	c #371E16",
"@.	c #351C14",
"#.	c #361E16",
"$.	c #341B14",
"%.	c #351D15",
"&.	c #432E25",
"*.	c #39241A",
"=.	c #382319",
"-.	c #372218",
";.	c #3E281E",
">.	c #301A10",
",.	c #301A13",
"'.	c #675A58",
").	c #3F2E2B",
"!.	c #412B23",
"~.	c #503B31",
"{.	c #4C372D",
"].	c #4C382D",
"^.	c #432F25",
"/.	c #473127",
"(.	c #49342A",
"_.	c #503C31",
":.	c #442F25",
"<.	c #3A261D",
"[.	c #210500",
"}.	c #2E1810",
"|.	c #38231A",
"1.	c #452F26",
"2.	c #270F07",
"3.	c #6A605D",
"4.	c #897D78",
"5.	c #433027",
"6.	c #301A14",
"7.	c #311B15",
"8.	c #3C271F",
"9.	c #4D392E",
"0.	c #4E392F",
"a.	c #483429",
"b.	c #503A30",
"c.	c #4B372C",
"d.	c #4A362C",
"e.	c #311C14",
"f.	c #3B261D",
"g.	c #372219",
"h.	c #2B140C",
"i.	c #817B7A",
"j.	c #D8D1CE",
"k.	c #8B7F7A",
"l.	c #3B2418",
"m.	c #372019",
"n.	c #3E2921",
"o.	c #48342A",
"p.	c #4E372D",
"q.	c #4A342A",
"r.	c #49352A",
"s.	c #4B372D",
"t.	c #473329",
"u.	c #331E16",
"v.	c #2F1A11",
"w.	c #280F09",
"x.	c #1E0200",
"y.	c #7F7B7A",
"z.	c #F6F4F4",
"A.	c #CEC6C3",
"B.	c #887D77",
"C.	c #422E25",
"D.	c #37221B",
"E.	c #422D24",
"F.	c #483329",
"G.	c #3C281F",
"H.	c #928C8A",
"I.	c #958B87",
"J.	c #675B56",
"K.	c #321D15",
"L.	c #2A120C",
"M.	c #2D1710",
"N.	c #3E2A20",
"O.	c #3D2A20",
"P.	c #453127",
"Q.	c #2C160E",
"R.	c #3F2C22",
"S.	c #3D2920",
"T.	c #352018",
"U.	c #412C23",
"V.	c #39241C",
"W.	c #4B352B",
"X.	c #473128",
"Y.	c #311D14",
"Z.	c #2F1A12",
"`.	c #3F2A21",
" +	c #473228",
".+	c #4C372C",
"++	c #402B22",
"@+	c #2C160F",
"#+	c #270E07",
"$+	c #37221A",
"%+	c #3B271E",
"&+	c #3C271E",
"*+	c #301B13",
"=+	c #483228",
"-+	c #432D24",
";+	c #4B342A",
">+	c #39231C",
",+	c #453026",
"'+	c #422C23",
")+	c #2B150D",
"!+	c #29120A",
"~+	c #210600",
"{+	c #3E2920",
"]+	c #3B251D",
"^+	c #442E25",
"/+	c #281008",
"(+	c #362219",
"_+	c #220701",
":+	c #362019",
"<+	c #270F08",
"[+	c #2D1810",
"}+	c #250D05",
"|+	c #38221B",
"1+	c #3D281F",
"2+	c #281009",
"3+	c #321B15",
"4+	c #301913",
"5+	c #230903",
"6+	c #3C261E",
"7+	c #260E07",
"8+	c #2E1711",
"9+	c #37211A",
"0+	c #2C150E",
"a+	c #230802",
"b+	c #270D07",
"c+	c #2B130D",
"d+	c #341E17",
"e+	c #250C04",
"f+	c #260D06",
"g+	c #28110A",
"h+	c #2F1812",
"i+	c #2C150F",
"j+	c #260C06",
"k+	c #240A04",
"l+	c #250B05",
"                                                                ",
"                                                                ",
"                                                                ",
"                                            . + @ #             ",
"                                            $ % & * =           ",
"                                          - ; > > , ' )         ",
"                    !                     ~ { ] ^ / ( _ :       ",
"                  < [ }                     | 1 2 3 : 4 5       ",
"                6 7 8 }                     9 0 a * > b c d     ",
"            e f g h i j                     . k l m n o p q     ",
"        r s t ^ s u v w                         x ^ / y p z A   ",
"      B C t / / / t D E                         F G H I J K L   ",
"    M N O ^ / / / / P Q                       R b * S T T U V   ",
"    W X Y t / / / t Z `  ...+.+.+.@.#.$.      %.&.*.=.-.;.0 A   ",
"  >.,.'.).!.~.{.{.].^./.(./ _.t t G / s :.<.[.}.|././.I 1.2.    ",
"3.4.5.6.6.7.8.9.0.a.z :.b.t c.t d.c./ / t {.e.f.U g.+ h.2.      ",
"i.j.k.l.7.6.m.n.o.p./.q.r.{.$ d.s.$ G G ]._.t.u.v.w.x.          ",
"y.z.A.B.C.6.6.D.^.E.x 3 3 F.3 t.3 3 3 3 a.t.3 G.                ",
"  H.I.J.g.K.L.M.N.x 3 3 3 O.P.3 3 3 3 3 3 3 3 ^.Q.              ",
"                R.3 3 t.{.S.T.3 3 T.C.3 3 3 P.U.Q.              ",
"              L V.W.X.1.z :.Y.x P.Z.`.q. +.+:.++@+              ",
"              #+k 0 0 1./.:.$+%+U.&+*+=+-+=+;+++@+              ",
"              @+>+Q.,+:.;+'+++)+++++!+=+E.=+J V.L               ",
"            ~+{+++]+k ^+++++++h.Z.T /+=+_ &.++e.(+_+            ",
"            f.++++`.:+!+n.`.8.<+    2.++++`.[+`.++}+            ",
"            |+1+] u.Q.  2+3+4+5+    L.|+&+T.8.`.6+,.            ",
"          7+8+9+0+        a+b+_+  ~+b+c+d+e+f+g+h+i+a+          ",
"        ~+j+j+@+          ~+j+    k+j+j+[.    _+l+j+a+          ",
"                                                                ",
"                                                                ",
"                                                                "};
