/* XPM */
static char * rat_walking_xpm[] = {
"96 16 5 1",
" 	c None",
".	c #C4ACAC",
"+	c #8C96AA",
"@	c #6C6573",
"#	c #191F20",
"                                                                                                ",
"                                                                                                ",
"    ...                                                                                         ",
"   .   .  .         ...                                             ..              ...         ",
"  .     ..         .   .  .         ..++++          .              .  .            .   .  .     ",
"  .               . ++++..        ..++.++          .+.+++         .   .  .        .     ..      ",
"  .++++++         .+++++++        ++++.++.+       .++.+.++         ++++..         .             ",
"  ++++++++        +++++++++      ++++++..++       ++++.++++       ++++++++         ++++++       ",
"  ++++++++       ++++++++++      +++++++++++     ++++++++++       ++++++++        ++++++++      ",
" ++++++++++      +++++++++++     +++++++++++     +++++++++++     ++++++++++      ++++++++++     ",
" ++++++++.++     ++++@+++.++     +++@+++++++     +++++++++++     +.+++++++++.   ++++++++++++.   ",
"+++++@++++++.    +++@@@+++++     ++@@@+++.++    .++++@++++++.   ++.++@+++++++   +++++++++.+++   ",
"+++++@+++++#+    .@@@@@++++#.    .@@@@@+++++.   .+++@@+++.+++   +.+++@+++.+++#  ++..+@+++++++#  ",
"+.++@@@@+++++#   .@@@@@@+++++  . . @@@@++++#+  ...@@@@@++++++#  +.@@@@++++++++ .+..@@@@++++#++ .",
" ..@@@@@...++++. . @@@@@.@@@@++ .   @@@.+++++++    @@@@.+++#++.  @@@@@@..++#+++ @@@@@@@...+++++ ",
"  ..@@@@@@@@@@@  .  @@@@@..@@@@ .    @@@..@@@@@     @@@..@+++++   @@@@@@@@@@@@@ @@@@@@@@@@@@@@@ "};
