/* XPM */
static char * wall_32_xpm[] = {
"32 32 536 2",
"  	c #AD8E81",
". 	c #A07F76",
"+ 	c #A6837E",
"@ 	c #A4827D",
"# 	c #9D8077",
"$ 	c #A08179",
"% 	c #9C7D74",
"& 	c #A18178",
"* 	c #987E73",
"= 	c #977E73",
"- 	c #A18277",
"; 	c #9A8077",
"> 	c #9E8279",
", 	c #9E8379",
"' 	c #9E8178",
") 	c #988173",
"! 	c #A78D80",
"~ 	c #947A71",
"{ 	c #9E7D74",
"] 	c #9C8178",
"^ 	c #A0847B",
"/ 	c #A3847D",
"( 	c #A5837C",
"_ 	c #9A7D76",
": 	c #967E74",
"< 	c #A5847D",
"[ 	c #9A8079",
"} 	c #957E74",
"| 	c #9B8176",
"1 	c #9D7F74",
"2 	c #9D8377",
"3 	c #9D7267",
"4 	c #8D5B59",
"5 	c #8E5C5A",
"6 	c #815553",
"7 	c #825654",
"8 	c #805351",
"9 	c #79514F",
"0 	c #7B5350",
"a 	c #875957",
"b 	c #8A5A58",
"c 	c #855755",
"d 	c #885C59",
"e 	c #855A57",
"f 	c #7C5653",
"g 	c #7B5250",
"h 	c #806057",
"i 	c #997367",
"j 	c #845553",
"k 	c #845654",
"l 	c #875856",
"m 	c #8C5B59",
"n 	c #8B5A58",
"o 	c #7E5451",
"p 	c #825855",
"q 	c #865855",
"r 	c #8A5B59",
"s 	c #895856",
"t 	c #825553",
"u 	c #815E56",
"v 	c #A57B70",
"w 	c #95605E",
"x 	c #7C5451",
"y 	c #805452",
"z 	c #7A4F4D",
"A 	c #865856",
"B 	c #865956",
"C 	c #835654",
"D 	c #835755",
"E 	c #815654",
"F 	c #7C5351",
"G 	c #7B5451",
"H 	c #7C5E55",
"I 	c #8F6C60",
"J 	c #7F5250",
"K 	c #8F5C5A",
"L 	c #90605D",
"M 	c #8B5C5A",
"N 	c #835855",
"O 	c #875655",
"P 	c #8B5957",
"Q 	c #96605E",
"R 	c #8C5A58",
"S 	c #7D514F",
"T 	c #78504E",
"U 	c #87665C",
"V 	c #A97D72",
"W 	c #875A58",
"X 	c #845856",
"Y 	c #835453",
"Z 	c #7D5351",
"` 	c #8B5857",
" .	c #895957",
"..	c #865957",
"+.	c #865A58",
"@.	c #88635A",
"#.	c #997368",
"$.	c #8B5B59",
"%.	c #935F5D",
"&.	c #885957",
"*.	c #805553",
"=.	c #885856",
"-.	c #8A5957",
";.	c #875956",
">.	c #7A514F",
",.	c #734D4B",
"'.	c #865654",
").	c #8B5958",
"!.	c #8D675E",
"~.	c #9D776B",
"{.	c #8F5D5B",
"].	c #825653",
"^.	c #785350",
"/.	c #76524F",
"(.	c #7B5653",
"_.	c #805653",
":.	c #7D5552",
"<.	c #865755",
"[.	c #865655",
"}.	c #885B58",
"|.	c #8A5C59",
"1.	c #947265",
"2.	c #815855",
"3.	c #855856",
"4.	c #935E5C",
"5.	c #915C5B",
"6.	c #895756",
"7.	c #895A57",
"8.	c #885857",
"9.	c #845855",
"0.	c #88655B",
"a.	c #9B7369",
"b.	c #8D5A59",
"c.	c #835553",
"d.	c #734E4C",
"e.	c #714E4B",
"f.	c #795350",
"g.	c #74524E",
"h.	c #75514E",
"i.	c #845754",
"j.	c #9D7669",
"k.	c #7E5250",
"l.	c #855554",
"m.	c #895A58",
"n.	c #7F5653",
"o.	c #7D5451",
"p.	c #754E4C",
"q.	c #855654",
"r.	c #825351",
"s.	c #8C645C",
"t.	c #987165",
"u.	c #815452",
"v.	c #7A5350",
"w.	c #74504D",
"x.	c #785451",
"y.	c #75524F",
"z.	c #7C5552",
"A.	c #8A5857",
"B.	c #835754",
"C.	c #856057",
"D.	c #986F65",
"E.	c #885A57",
"F.	c #75504D",
"G.	c #78514F",
"H.	c #79524F",
"I.	c #845755",
"J.	c #7E5452",
"K.	c #806056",
"L.	c #906F61",
"M.	c #795951",
"N.	c #775A51",
"O.	c #765950",
"P.	c #72584E",
"Q.	c #75584F",
"R.	c #785A51",
"S.	c #71584E",
"T.	c #76544D",
"U.	c #815B54",
"V.	c #7A5951",
"W.	c #7D5851",
"X.	c #7C5A52",
"Y.	c #7F5B53",
"Z.	c #815C54",
"`.	c #85675A",
" +	c #907063",
".+	c #74554D",
"++	c #7F5D55",
"@+	c #7C5851",
"#+	c #795950",
"$+	c #72564E",
"%+	c #775950",
"&+	c #73574F",
"*+	c #74574F",
"=+	c #7D5A52",
"-+	c #805B54",
";+	c #785950",
">+	c #7D5B53",
",+	c #816558",
"'+	c #A1827A",
")+	c #987D74",
"!+	c #8F7A6F",
"~+	c #917B6E",
"{+	c #957F77",
"]+	c #937D72",
"^+	c #917F73",
"/+	c #A78B7C",
"(+	c #957C74",
"_+	c #937D75",
":+	c #957C73",
"<+	c #9C7F77",
"[+	c #9F8078",
"}+	c #9F8077",
"|+	c #9F7F78",
"1+	c #957D73",
"2+	c #927C6E",
"3+	c #9B7F76",
"4+	c #987F77",
"5+	c #9E827A",
"6+	c #947C74",
"7+	c #977F73",
"8+	c #978073",
"9+	c #A48D81",
"0+	c #957E75",
"a+	c #9B7F78",
"b+	c #9D7E76",
"c+	c #A08078",
"d+	c #977E76",
"e+	c #9A7F77",
"f+	c #9D8079",
"g+	c #855553",
"h+	c #744E4C",
"i+	c #7A5552",
"j+	c #7B5652",
"k+	c #7B5552",
"l+	c #765C52",
"m+	c #926F63",
"n+	c #7B514F",
"o+	c #805552",
"p+	c #895C59",
"q+	c #79504E",
"r+	c #875A57",
"s+	c #815755",
"t+	c #7C5E54",
"u+	c #8E6F62",
"v+	c #7C5250",
"w+	c #825452",
"x+	c #835956",
"y+	c #825755",
"z+	c #875755",
"A+	c #714F4C",
"B+	c #7E5351",
"C+	c #826056",
"D+	c #8D6F62",
"E+	c #895B58",
"F+	c #905D5B",
"G+	c #925E5C",
"H+	c #835856",
"I+	c #8A5B58",
"J+	c #7D5250",
"K+	c #784E4C",
"L+	c #7A5451",
"M+	c #78514E",
"N+	c #8B5D5A",
"O+	c #785C52",
"P+	c #947165",
"Q+	c #7F5351",
"R+	c #997468",
"S+	c #8C5C5A",
"T+	c #905C5A",
"U+	c #855855",
"V+	c #865A57",
"W+	c #7F5553",
"X+	c #805754",
"Y+	c #6F4C49",
"Z+	c #744F4C",
"`+	c #7C5D54",
" @	c #927164",
".@	c #805654",
"+@	c #8E5D5B",
"@@	c #7E5653",
"#@	c #825F56",
"$@	c #9E7469",
"%@	c #915D5B",
"&@	c #825754",
"*@	c #6F4C4A",
"=@	c #7A5250",
"-@	c #7F5552",
";@	c #826258",
">@	c #815653",
",@	c #845453",
"'@	c #886259",
")@	c #A4796D",
"!@	c #8D5C5A",
"~@	c #8B5B58",
"{@	c #93605E",
"]@	c #7C5452",
"^@	c #78524F",
"/@	c #744D4B",
"(@	c #7F5452",
"_@	c #865B58",
":@	c #836158",
"<@	c #987366",
"[@	c #8D5E5C",
"}@	c #85635A",
"|@	c #A2796D",
"1@	c #8D5A58",
"2@	c #815352",
"3@	c #7A524F",
"4@	c #7E5552",
"5@	c #795D53",
"6@	c #926E62",
"7@	c #77504D",
"8@	c #7B5952",
"9@	c #7E5A52",
"0@	c #7B5A52",
"a@	c #7B5951",
"b@	c #785951",
"c@	c #7E6557",
"d@	c #937163",
"e@	c #846057",
"f@	c #7F5A53",
"g@	c #7A5750",
"h@	c #75554D",
"i@	c #71554D",
"j@	c #71554C",
"k@	c #74564E",
"l@	c #795B52",
"m@	c #755950",
"n@	c #785B52",
"o@	c #7A6154",
"p@	c #876D5E",
"q@	c #745950",
"r@	c #A78E7F",
"s@	c #9A7D74",
"t@	c #977F77",
"u@	c #947870",
"v@	c #977E74",
"w@	c #977E75",
"x@	c #9F7D75",
"y@	c #A08177",
"z@	c #A1847B",
"A@	c #9D8177",
"B@	c #997E76",
"C@	c #987A70",
"D@	c #94796F",
"E@	c #9A7E73",
"F@	c #947F71",
"G@	c #A38C7E",
"H@	c #977D71",
"I@	c #9A8076",
"J@	c #9D8179",
"K@	c #9A7F76",
"L@	c #947C72",
"M@	c #987970",
"N@	c #977E71",
"O@	c #998176",
"P@	c #A0837B",
"Q@	c #998179",
"R@	c #907B71",
"S@	c #987E75",
"T@	c #998376",
"U@	c #967366",
"V@	c #7E5553",
"W@	c #826157",
"X@	c #917165",
"Y@	c #895E5B",
"Z@	c #8C5F5C",
"`@	c #825956",
" #	c #7B5351",
".#	c #72504D",
"+#	c #855956",
"@#	c #7E5F55",
"##	c #987669",
"$#	c #8E5B59",
"%#	c #8E5A59",
"&#	c #805956",
"*#	c #816157",
"=#	c #967266",
"-#	c #7F5754",
";#	c #885B59",
">#	c #7B5452",
",#	c #816257",
"'#	c #9F786B",
")#	c #77514E",
"!#	c #795250",
"~#	c #7F5F56",
"{#	c #9A7367",
"]#	c #76514E",
"^#	c #845B57",
"/#	c #805855",
"(#	c #885D5A",
"_#	c #815754",
":#	c #937265",
"<#	c #79514E",
"[#	c #86645B",
"}#	c #7C5350",
"|#	c #875C59",
"1#	c #825A57",
"2#	c #815A56",
"3#	c #895D5A",
"4#	c #855C59",
"5#	c #816158",
"6#	c #977568",
"7#	c #764F4D",
"8#	c #714D4A",
"9#	c #916D62",
"0#	c #7A514E",
"a#	c #815955",
"b#	c #744F4D",
"c#	c #855A58",
"d#	c #815956",
"e#	c #7F6157",
"f#	c #957064",
"g#	c #724B49",
"h#	c #774F4D",
"i#	c #76504D",
"j#	c #7F5D54",
"k#	c #956F63",
"l#	c #845956",
"m#	c #7D5452",
"n#	c #7C5753",
"o#	c #8E7162",
"p#	c #75574E",
"q#	c #7A5A51",
"r#	c #7C5B53",
"s#	c #76564F",
"t#	c #7E5D55",
"u#	c #805F56",
"v#	c #73584E",
"w#	c #6B5149",
"x#	c #755A51",
"y#	c #75574F",
"z#	c #76564E",
"A#	c #855E56",
"B#	c #7E5B53",
"C#	c #816357",
"D#	c #967365",
"E#	c #7A5B52",
"F#	c #7A5D53",
"G#	c #765850",
"H#	c #795A52",
"I#	c #73574E",
"J#	c #71564D",
"K#	c #7E5952",
"L#	c #7A5A52",
"M#	c #75564E",
"N#	c #7C6657",
"O#	c #967E75",
"P#	c #988178",
"Q#	c #9F8279",
"R#	c #988179",
"S#	c #9A8273",
"T#	c #A08A7B",
"U#	c #937C72",
"V#	c #91786E",
"W#	c #9E8179",
"X#	c #A9847D",
"Y#	c #A2817A",
"Z#	c #9D817A",
"`#	c #9D7E75",
" $	c #9A7F75",
".$	c #9F817B",
"+$	c #9E827C",
"@$	c #947C73",
"#$	c #978077",
"$$	c #968074",
"%$	c #997F79",
"&$	c #9F8479",
"*$	c #B19285",
"=$	c #9D8078",
"-$	c #9B7F77",
";$	c #997E73",
">$	c #987C74",
",$	c #997B74",
"'$	c #816056",
")$	c #957266",
"!$	c #945F5D",
"~$	c #7F5E55",
"{$	c #977367",
"]$	c #7B524F",
"^$	c #805251",
"/$	c #805E55",
"($	c #987266",
"_$	c #8E5E5C",
":$	c #825352",
"<$	c #835554",
"[$	c #724F4C",
"}$	c #987367",
"|$	c #845554",
"1$	c #836056",
"2$	c #977266",
"3$	c #7C504F",
"4$	c #805250",
"5$	c #9C7569",
"6$	c #885755",
"7$	c #754E4B",
"8$	c #977165",
"9$	c #76504E",
"0$	c #74504E",
"a$	c #73504D",
"b$	c #7A504E",
"c$	c #836157",
"d$	c #8D5E5B",
"e$	c #764D4B",
"f$	c #7E5150",
"g$	c #774E4C",
"h$	c #7D5F55",
"i$	c #987468",
"j$	c #77524F",
"k$	c #8A635B",
"l$	c #7D5150",
"m$	c #806157",
"n$	c #947064",
"o$	c #77514F",
"p$	c #7C514F",
"q$	c #866058",
"r$	c #9A7066",
"s$	c #7F5A52",
"t$	c #815D55",
"u$	c #74544D",
"v$	c #7A6355",
"w$	c #8D7162",
"x$	c #7E5C54",
"y$	c #7D5C54",
"z$	c #795C53",
"A$	c #71544D",
"B$	c #73564E",
"C$	c #7A5850",
"D$	c #846158",
"E$	c #7A5952",
"F$	c #87685B",
"G$	c #8A6F60",
"H$	c #7B5A51",
"I$	c #825E56",
"J$	c #855E57",
"K$	c #805C54",
"  . + @ # $ % & * = - ; > , ' ) ! ~ { ] ^ / ( _ : ; < [ } | 1 2 ",
"3 4 5 6 7 8 9 0 a b c d e f g h i j k l m m n o o p q r s t 8 u ",
"v w n x y z A B C s D E 7 F G H I J j K L M N C O P Q R S 8 T U ",
"V W X l Y 6 Z F s `  .k ..t +.@.#.l  .$.%.&.*.=.-.;.C >.,.'.).!.",
"~.{.$.].^././.(.Z _.:.<.[.}.|.@.1.2.3.4.5.6.7.8. .9.g '. .n m 0.",
"a.b.c.d.e.f.g.h.i.k  .*.Z 5 $.@.j.k.l.-.O m.n.o.o ,.p.4 q.r.R s.",
"t.u.v.e.w.x.y.z._.A.b t l B.=.C.D.t 8 q.k E.F.v.w.G.o.6 H.I.J.K.",
"L.M.N.O.P.Q.R.S.T.U.V.W.X.Y.Z.`. +Q..+++@+#+$+%+&+*+=+U.-+;+>+,+",
"< '+)+!+~+{+]+^+/+(+_+:+<+[+}+|+1+2+3+4+5+6+7+8+9+0+a+b+c+d+e+f+",
"y g+h+i+j+z.k+l+m+n+o+I.3.p+m.R q+c A r+Z s+z.t+u+G.v+w+8 B.x+y+",
"z+z Z ^.A+B+7 C+D+E+F+G+n H+I+J+K+L+M+7 z.N+:.O+P+g c.o s ).l s ",
"Q+c P 8 6 9.=.t+R+S+T+U+d p V+:.M+w.W+X+D Y+Z+`+ @.@ .A.4 +@J+q.",
"@@D R  .F+2.7 #@$@%@4.-.r x+&@Z+*@0 G.=@,.-@x ;@i o X F+b F.>@x ",
"p E.F+ .,@a 6 '@)@!@~@{@r+;.]@^@d./@f.(@(@X _@:@<@v.[@z.*.k+o C ",
"7.i.q.,@6 q.J.}@|@1@+@=.2@J+3@_.Z+4@E g p _@L+5@6@J.v+J.M+7@q.l ",
"8@Q.9@0@a@0@b@c@d@e@f@g@h@f@;+i@j@k@l@m@n@N.i@o@p@N.m@m@q@Q.M.N.",
"r@s@t@u@v@w@x@y@z@A@B@C@v@D@E@F@G@H@0+I@J@K@L@M@N@O@P@Q@R@S@' T@",
"U@ .9 z+k n -. .l.3@y V@h+6 <.W@X@_.Y@Z@`@H. #f.G 4@&@v..#H++#@#",
"##<.z+$#=.%#l R z+Q+D h.z.&#3@*#=#B N+2.-#Z+V@k+^.&@;#W+>#d -@,#",
"'#G.o+B+ .n G+n u.Q+c )#z.!#A+~#{#p+E+4@]#n.0 V@L+^#+.>#/#(#_#`+",
":#F <#k s n 4.c.8 J A *.G V@e [#i 7.}#G.J.Z 7@p |#1#2#x+3#4#X+5#",
"6#7#p.u.K %@K C 8#H.R <.i.|.d :@9#0#x L+a#b#9 x+c#^#2._@d d#G e#",
"f#g#h#_.-.j l ]#i#L+c [.[.'.A j#k# .-#l#v.o.I.{.s+a m#n#/#z.@@@#",
"o#p#q#r#s#t#u#v#w#x#y#a@z#A#B#C#D#E#F#G#H#I#J#>+K#=+V.X.L#M.M#N#",
"O#e+P#Q## R#Q@S#T#U#V#W#X#Y#Z#`# $.$+$@$#$$$%$&$*$=$-$;$K@>$E@,$",
"c.6 9 A =.m.d '$)$8 c.<.!$[.8 T k.P I.f.x :.>@~${$6 t t s+ #X >@",
"]$^$'.r+7 2.C /$($Q+*._$n :$<$[$x -@u.v+l l 3@K.}$j u.x+/#_.X C ",
"w+q 4 6 R |$q.1$2$C @@m#h+@@=@N :.x J.).%#3$4$'$5$-.m t u.4@m ].",
"B.7 w+6$E y 7$/$8$y g f.9$!#a#0$]#a$G f.b$b$k.c$($Y Q+9$c.m#d$ #",
"e$w+6 3@y f$g$h$i$u.7 q+o n.z.]#)#q+j$M+S V+b k$i$g c =@l$r C ^$",
"z+z+Q+>.f$z ].m$n$C w.o$Z c.2.]@!#T p$4$B -#4@q$r$S Y n 6 I.k.k.",
"s$f@@+t$u$=+z#v$w$p#.+x$G#y$z$O.A$B$C$Z.r#D$E$F$G$H$I$J$N.L#V.K$"};
